<svg id="Layer_1" data-name="Layer 1" xmlns="http://www.w3.org/2000/svg" xmlns:xlink="http://www.w3.org/1999/xlink" viewBox="0 0 1800 600"><defs><style>.cls-1{fill:none;}.cls-2{fill:#fff;}.cls-3,.cls-4{fill:#020202;}.cls-12,.cls-13,.cls-4{stroke:#000;}.cls-4{stroke-miterlimit:3.07;stroke-width:0.31px;}.cls-5{clip-path:url(#clip-path);}.cls-6{clip-path:url(#clip-path-2);}.cls-7{fill:url(#linear-gradient);}.cls-8{clip-path:url(#clip-path-3);}.cls-9{clip-path:url(#clip-path-4);}.cls-10{fill:url(#linear-gradient-2);}.cls-11{fill:#595959;}.cls-12{fill:#ffdd3b;}.cls-12,.cls-13{stroke-linecap:round;stroke-linejoin:round;stroke-width:9px;}.cls-13{fill:#387baa;}</style><clipPath id="clip-path"><rect class="cls-1" x="220.67" y="190" width="176" height="180"/></clipPath><clipPath id="clip-path-2"><path class="cls-1" d="M338.13,191.06a162.62,162.62,0,0,0-27.35,2.33c-24.21,4.29-28.6,13.27-28.6,29.8v21.86h57.21v7.29H260.73c-16.63,0-31.18,10-35.72,29.07-5.24,21.87-5.49,35.48,0,58.29,4.05,17,13.78,29.07,30.38,29.07h19.67V342.55c0-18.95,16.33-35.63,35.72-35.63h57.14c15.9,0,28.61-13.12,28.61-29.15V223.22c0-15.55-13.08-27.23-28.61-29.8A174.75,174.75,0,0,0,338.13,191.06Zm-30.94,17.6a10.88,10.88,0,0,1,10.74,11,10.73,10.73,0,1,1-21.45,0A10.85,10.85,0,0,1,307.19,208.66Z"/></clipPath><linearGradient id="linear-gradient" x1="-2361.2" y1="-1769.91" x2="-1266.42" y2="-828.01" gradientTransform="translate(619.73 506.9) scale(0.17 0.17)" gradientUnits="userSpaceOnUse"><stop offset="0" stop-color="#5a9fd4"/><stop offset="0.01" stop-color="#5a9fd4"/><stop offset="0.02" stop-color="#599ed3"/><stop offset="0.02" stop-color="#599ed2"/><stop offset="0.03" stop-color="#599dd2"/><stop offset="0.04" stop-color="#589dd1"/><stop offset="0.05" stop-color="#589cd0"/><stop offset="0.05" stop-color="#579bd0"/><stop offset="0.06" stop-color="#579bcf"/><stop offset="0.07" stop-color="#569ace"/><stop offset="0.08" stop-color="#569ace"/><stop offset="0.09" stop-color="#5599cd"/><stop offset="0.09" stop-color="#5598cc"/><stop offset="0.1" stop-color="#5498cc"/><stop offset="0.11" stop-color="#5497cb"/><stop offset="0.12" stop-color="#5396ca"/><stop offset="0.13" stop-color="#5396ca"/><stop offset="0.13" stop-color="#5295c9"/><stop offset="0.14" stop-color="#5295c8"/><stop offset="0.15" stop-color="#5194c8"/><stop offset="0.16" stop-color="#5193c7"/><stop offset="0.16" stop-color="#5093c6"/><stop offset="0.17" stop-color="#5092c6"/><stop offset="0.18" stop-color="#4f92c5"/><stop offset="0.19" stop-color="#4f91c4"/><stop offset="0.2" stop-color="#4f90c4"/><stop offset="0.2" stop-color="#4e90c3"/><stop offset="0.21" stop-color="#4e8fc2"/><stop offset="0.22" stop-color="#4d8fc2"/><stop offset="0.23" stop-color="#4d8ec1"/><stop offset="0.23" stop-color="#4c8dc0"/><stop offset="0.24" stop-color="#4c8dbf"/><stop offset="0.25" stop-color="#4b8cbf"/><stop offset="0.26" stop-color="#4b8bbe"/><stop offset="0.27" stop-color="#4a8bbd"/><stop offset="0.27" stop-color="#4a8abd"/><stop offset="0.28" stop-color="#498abc"/><stop offset="0.29" stop-color="#4989bb"/><stop offset="0.3" stop-color="#4888bb"/><stop offset="0.3" stop-color="#4888ba"/><stop offset="0.31" stop-color="#4787b9"/><stop offset="0.32" stop-color="#4787b9"/><stop offset="0.33" stop-color="#4686b8"/><stop offset="0.34" stop-color="#4685b7"/><stop offset="0.34" stop-color="#4685b7"/><stop offset="0.35" stop-color="#4584b6"/><stop offset="0.36" stop-color="#4584b5"/><stop offset="0.37" stop-color="#4483b5"/><stop offset="0.38" stop-color="#4482b4"/><stop offset="0.38" stop-color="#4382b3"/><stop offset="0.39" stop-color="#4381b3"/><stop offset="0.4" stop-color="#4281b2"/><stop offset="0.41" stop-color="#4280b1"/><stop offset="0.41" stop-color="#417fb1"/><stop offset="0.42" stop-color="#417fb0"/><stop offset="0.43" stop-color="#407eaf"/><stop offset="0.44" stop-color="#407daf"/><stop offset="0.45" stop-color="#3f7dae"/><stop offset="0.45" stop-color="#3f7cad"/><stop offset="0.46" stop-color="#3e7cad"/><stop offset="0.46" stop-color="#3e7bac"/><stop offset="0.47" stop-color="#3e7bac"/><stop offset="0.48" stop-color="#3d7aab"/><stop offset="0.48" stop-color="#3d7aab"/><stop offset="0.49" stop-color="#3d79aa"/><stop offset="0.5" stop-color="#3c79a9"/><stop offset="0.51" stop-color="#3c78a9"/><stop offset="0.52" stop-color="#3b77a8"/><stop offset="0.52" stop-color="#3b77a7"/><stop offset="0.53" stop-color="#3a76a6"/><stop offset="0.54" stop-color="#3a76a6"/><stop offset="0.54" stop-color="#3975a5"/><stop offset="0.55" stop-color="#3975a5"/><stop offset="0.55" stop-color="#3974a4"/><stop offset="0.56" stop-color="#3874a4"/><stop offset="0.57" stop-color="#3873a3"/><stop offset="0.58" stop-color="#3772a2"/><stop offset="0.59" stop-color="#3772a2"/><stop offset="0.59" stop-color="#3671a1"/><stop offset="0.6" stop-color="#3671a0"/><stop offset="0.61" stop-color="#3570a0"/><stop offset="0.62" stop-color="#356f9f"/><stop offset="0.63" stop-color="#346f9e"/><stop offset="0.63" stop-color="#346e9e"/><stop offset="0.64" stop-color="#336e9d"/><stop offset="0.65" stop-color="#336d9c"/><stop offset="0.66" stop-color="#336c9c"/><stop offset="0.66" stop-color="#326c9b"/><stop offset="0.67" stop-color="#326b9a"/><stop offset="0.68" stop-color="#316b9a"/><stop offset="0.69" stop-color="#316a99"/><stop offset="0.75" stop-color="#306998"/><stop offset="1" stop-color="#306998"/></linearGradient><clipPath id="clip-path-3"><rect class="cls-1" x="282" y="251.33" width="177.33" height="181.33"/></clipPath><clipPath id="clip-path-4"><path class="cls-1" d="M403.68,252.38v25.47c0,19.75-16.7,36.37-35.73,36.37H310.78c-15.64,0-28.6,13.43-28.6,29.16V398c0,15.55,13.48,24.69,28.6,29.16,18.11,5.34,35.48,6.32,57.14,0,14.4-4.17,28.61-12.6,28.61-29.16V376.09H339.39v-7.26h85.7c16.64,0,22.81-11.62,28.61-29.07,6-18,5.7-35.26,0-58.29-4.12-16.58-11.94-29.06-28.61-29.06ZM371.55,390.69a10.93,10.93,0,1,1-10.75,10.88,10.82,10.82,0,0,1,10.75-10.88Z"/></clipPath><linearGradient id="linear-gradient-2" x1="-1031.56" y1="-349.52" x2="-1863.93" y2="-1527.2" gradientTransform="translate(619.73 506.9) scale(0.17 0.17)" gradientUnits="userSpaceOnUse"><stop offset="0" stop-color="#ffd43b"/><stop offset="0.25" stop-color="#ffd43b"/><stop offset="0.31" stop-color="#ffd43b"/><stop offset="0.32" stop-color="#ffd43b"/><stop offset="0.32" stop-color="#ffd43c"/><stop offset="0.33" stop-color="#ffd43c"/><stop offset="0.33" stop-color="#ffd53d"/><stop offset="0.34" stop-color="#ffd53e"/><stop offset="0.34" stop-color="#ffd53e"/><stop offset="0.34" stop-color="#ffd53f"/><stop offset="0.35" stop-color="#ffd640"/><stop offset="0.35" stop-color="#ffd640"/><stop offset="0.36" stop-color="#ffd641"/><stop offset="0.36" stop-color="#ffd642"/><stop offset="0.36" stop-color="#ffd742"/><stop offset="0.37" stop-color="#ffd743"/><stop offset="0.37" stop-color="#ffd744"/><stop offset="0.38" stop-color="#ffd744"/><stop offset="0.38" stop-color="#ffd845"/><stop offset="0.38" stop-color="#ffd846"/><stop offset="0.39" stop-color="#ffd846"/><stop offset="0.39" stop-color="#ffd847"/><stop offset="0.39" stop-color="#ffd948"/><stop offset="0.4" stop-color="#ffd948"/><stop offset="0.4" stop-color="#ffd949"/><stop offset="0.41" stop-color="#ffd94a"/><stop offset="0.41" stop-color="#ffd94a"/><stop offset="0.41" stop-color="#ffda4b"/><stop offset="0.42" stop-color="#ffda4c"/><stop offset="0.42" stop-color="#ffda4c"/><stop offset="0.43" stop-color="#ffda4d"/><stop offset="0.43" stop-color="#ffdb4e"/><stop offset="0.43" stop-color="#ffdb4f"/><stop offset="0.44" stop-color="#ffdb4f"/><stop offset="0.44" stop-color="#ffdb50"/><stop offset="0.45" stop-color="#ffdc51"/><stop offset="0.45" stop-color="#ffdc51"/><stop offset="0.45" stop-color="#ffdc52"/><stop offset="0.46" stop-color="#ffdc53"/><stop offset="0.46" stop-color="#ffdd53"/><stop offset="0.46" stop-color="#ffdd54"/><stop offset="0.47" stop-color="#fd5"/><stop offset="0.47" stop-color="#fd5"/><stop offset="0.48" stop-color="#ffde56"/><stop offset="0.48" stop-color="#ffde57"/><stop offset="0.48" stop-color="#ffde57"/><stop offset="0.49" stop-color="#ffde58"/><stop offset="0.49" stop-color="#ffdf59"/><stop offset="0.5" stop-color="#ffdf59"/><stop offset="0.5" stop-color="#ffdf5a"/><stop offset="0.5" stop-color="#ffdf5b"/><stop offset="0.51" stop-color="#ffe05b"/><stop offset="0.51" stop-color="#ffe05c"/><stop offset="0.52" stop-color="#ffe05d"/><stop offset="0.52" stop-color="#ffe05d"/><stop offset="0.52" stop-color="#ffe05e"/><stop offset="0.53" stop-color="#ffe15f"/><stop offset="0.53" stop-color="#ffe15f"/><stop offset="0.54" stop-color="#ffe160"/><stop offset="0.54" stop-color="#ffe161"/><stop offset="0.54" stop-color="#ffe261"/><stop offset="0.55" stop-color="#ffe262"/><stop offset="0.55" stop-color="#ffe263"/><stop offset="0.55" stop-color="#ffe263"/><stop offset="0.56" stop-color="#ffe364"/><stop offset="0.56" stop-color="#ffe365"/><stop offset="0.57" stop-color="#ffe365"/><stop offset="0.57" stop-color="#ffe366"/><stop offset="0.57" stop-color="#ffe467"/><stop offset="0.58" stop-color="#ffe467"/><stop offset="0.58" stop-color="#ffe468"/><stop offset="0.59" stop-color="#ffe469"/><stop offset="0.59" stop-color="#ffe569"/><stop offset="0.59" stop-color="#ffe56a"/><stop offset="0.6" stop-color="#ffe56b"/><stop offset="0.6" stop-color="#ffe56b"/><stop offset="0.61" stop-color="#ffe66c"/><stop offset="0.61" stop-color="#ffe66d"/><stop offset="0.61" stop-color="#ffe66d"/><stop offset="0.62" stop-color="#ffe66e"/><stop offset="0.62" stop-color="#ffe76f"/><stop offset="0.63" stop-color="#ffe76f"/><stop offset="0.63" stop-color="#ffe770"/><stop offset="0.63" stop-color="#ffe771"/><stop offset="0.64" stop-color="#ffe871"/><stop offset="0.64" stop-color="#ffe872"/><stop offset="0.66" stop-color="#ffe873"/><stop offset="0.69" stop-color="#ffe873"/><stop offset="0.75" stop-color="#ffe873"/><stop offset="1" stop-color="#ffe873"/></linearGradient></defs><rect class="cls-2" width="1800" height="600"/><rect class="cls-2" width="1800" height="600"/><rect class="cls-2" width="1800" height="600"/><path class="cls-3" d="M470.11,278.35V264a10.49,10.49,0,0,0-10.49-10.51h-7.83c-6.9-7.72-15.86-11.65-26.66-11.65H407V223.19A38.31,38.31,0,0,0,395.45,196a47.84,47.84,0,0,0-25.78-13A186.4,186.4,0,0,0,339,180.51h-1.13A171.15,171.15,0,0,0,309,183c-14.46,2.58-23.57,6.84-29.53,13.83-6.81,8-7.73,17.81-7.73,26.34V241.8h-11A46.34,46.34,0,0,0,232,251.4c-8.47,6.59-14.39,16.09-17.13,27.53-5.74,23.95-5.74,39.3,0,63.22,5.65,23.61,20.44,37.16,40.6,37.16h16.3V398c0,18.19,13.17,32.47,36.12,39.25A110,110,0,0,0,339.17,442a112.4,112.4,0,0,0,31.67-4.79c9.79-2.85,17.77-6.93,23.69-12.11A35.29,35.29,0,0,0,407,398v-18.6h18.11c10.86,0,19.7-3.93,26.32-11.69,5.84-6.84,9.34-15.88,12.22-24.62,5.77-17.41,6.44-34.59,2-56.17A10.4,10.4,0,0,0,470.11,278.35ZM307.19,219.17a.47.47,0,0,1,.25.43.35.35,0,0,1-.25.37c-.09,0-.24-.13-.24-.37A.65.65,0,0,1,307.19,219.17ZM371.55,402h0a.43.43,0,0,1-.22-.43c0-.27.18-.37.25-.37a.38.38,0,0,1,.24.37A.48.48,0,0,1,371.55,402Z"/><path class="cls-4" d="M305.78,218.16h3v3h-3Z"/><path class="cls-4" d="M370.29,400.53h3v3h-3Z"/><g class="cls-5"><g class="cls-6"><path class="cls-7" d="M219.52,368.77V191h177V368.77Z"/></g></g><g class="cls-8"><g class="cls-9"><path class="cls-10" d="M282.18,433.43v-181h177.5V433.43Z"/></g></g><path d="M460.82,273.84h-7.15V281h-7.15v7.14h-7.16v7.17h-50v-7.17h-7.15V281H375V266.67h-14.3V281h-7.15v7.14h-7.15v7.17h-50v-7.17h-7.15V281h-7.15v-7.18H275V259.49H460.82Z"/><path class="cls-11" d="M439.36,266.67h7.16v7.17h-7.16Z"/><path class="cls-11" d="M432.21,273.84h7.15V281h-7.15Z"/><path class="cls-11" d="M425.06,266.67h7.15v7.17h-7.15Z"/><path class="cls-11" d="M417.91,273.84h7.15V281h-7.15Z"/><path class="cls-11" d="M425.06,281h7.15v7.17h-7.15Z"/><path class="cls-11" d="M410.77,281h7.14v7.17h-7.14Z"/><path class="cls-11" d="M339.29,266.67h7.15v7.17h-7.15Z"/><path class="cls-11" d="M332.14,273.84h7.15V281h-7.15Z"/><path class="cls-11" d="M325,266.67h7.15v7.17H325Z"/><path class="cls-11" d="M325,281h7.15v7.17H325Z"/><path class="cls-11" d="M317.84,273.84H325V281h-7.15Z"/><path class="cls-11" d="M310.69,281h7.15v7.17h-7.15Z"/><path class="cls-12" d="M642,233.11a53.12,53.12,0,0,0-24.21,5.32,48,48,0,0,0-17.66,15.29,72.44,72.44,0,0,0-10.84,24.12,126,126,0,0,0-3.68,31.8q0,23.83,5.91,40.66T609.86,376q12.45,8.83,32.12,8.83a126,126,0,0,0,27.44-3.06A263.45,263.45,0,0,0,699.29,373v40a147.63,147.63,0,0,1-29.35,8.83,177.18,177.18,0,0,1-32.42,2.71q-34.72,0-57.08-14.38T547.31,369.8q-10.74-25.89-10.75-60.46,0-25.51,6.92-46.73a106,106,0,0,1,20.27-36.72,89.46,89.46,0,0,1,33-24q19.69-8.46,45.19-8.46a137.29,137.29,0,0,1,33.58,4.23,168.78,168.78,0,0,1,32.19,11.58L692.4,248A260.9,260.9,0,0,0,667,237.57,75.64,75.64,0,0,0,642,233.11Z"/><path class="cls-12" d="M899.55,335.16q0,21.52-5.77,38.12a75.89,75.89,0,0,1-16.75,28,70.88,70.88,0,0,1-26.44,17.29q-15.44,5.83-34.79,5.84a91.83,91.83,0,0,1-33.29-5.84,72.87,72.87,0,0,1-26.27-17.29,77.87,77.87,0,0,1-17.21-28Q733,356.67,733,335.16q0-28.59,10.12-48.4A69.56,69.56,0,0,1,772,256.64q18.75-10.32,44.73-10.32,24.12,0,42.79,10.32a73,73,0,0,1,29.35,30.12Q899.56,306.58,899.55,335.16Zm-118.79,0q0,16.89,3.69,28.43T796,381q7.83,5.83,20.43,5.83T836.61,381q7.77-5.83,11.38-17.36t3.6-28.43q0-17.07-3.6-28.36t-11.46-17q-7.83-5.69-20.44-5.68-18.58,0-27,12.75T780.76,335.16Z"/><path class="cls-12" d="M1094.41,335.16q0,21.52-5.77,38.12a75.89,75.89,0,0,1-16.75,28,70.8,70.8,0,0,1-26.44,17.29q-15.43,5.83-34.79,5.84a91.83,91.83,0,0,1-33.29-5.84,73,73,0,0,1-26.27-17.29,77.87,77.87,0,0,1-17.21-28q-6.06-16.61-6.06-38.12,0-28.59,10.12-48.4a69.56,69.56,0,0,1,28.9-30.12q18.75-10.32,44.73-10.32,24.12,0,42.79,10.32a73,73,0,0,1,29.35,30.12Q1094.42,306.58,1094.41,335.16Zm-118.79,0q0,16.89,3.69,28.43T990.83,381q7.83,5.83,20.44,5.83,12.45,0,20.2-5.83t11.38-17.36q3.6-11.54,3.6-28.43,0-17.07-3.6-28.36t-11.46-17q-7.83-5.69-20.44-5.68-18.59,0-27,12.75T975.62,335.16Z"/><path class="cls-12" d="M1180,421.36h-46.87V182.24H1180Z"/><path class="cls-13" d="M1304.63,196.7q43.5,0,63.46,18.66t20,51.4a89.47,89.47,0,0,1-4.45,28.21,62.19,62.19,0,0,1-14.52,23.89q-10.06,10.44-26.82,16.53t-41.33,6.06H1280.5v79.91h-47.64V196.7Zm-2.46,39H1280.5v66.71h15.67q13.38,0,23.21-3.54a31,31,0,0,0,15.21-11.07q5.39-7.53,5.39-19.37,0-16.58-9.23-24.65T1302.17,235.72Z"/><path class="cls-13" d="M1402.21,249.55h51.34L1486,346.22a94.17,94.17,0,0,1,2.61,9.37c.72,3.19,1.34,6.46,1.85,9.84s.92,6.91,1.23,10.6h.92a147.94,147.94,0,0,1,2.54-15.52,129.56,129.56,0,0,1,4.08-14.29L1531,249.55h50.28l-72.69,193.79q-6.63,17.84-17.23,29.73A69.5,69.5,0,0,1,1467,491a74.6,74.6,0,0,1-30.18,6,96.84,96.84,0,0,1-13.84-.86c-3.89-.55-7.22-1.14-10-1.75V457.18a76.26,76.26,0,0,0,8.15,1.37,81.11,81.11,0,0,0,10.31.63,32.68,32.68,0,0,0,16.9-4.17,36.57,36.57,0,0,0,11.83-11.15,60.66,60.66,0,0,0,7.52-15.27l2.77-8.45Z"/></svg>