<svg xmlns="http://www.w3.org/2000/svg" xmlns:xlink="http://www.w3.org/1999/xlink" width="1500" zoomAndPan="magnify" viewBox="0 0 1125 374.999991" height="500" preserveAspectRatio="xMidYMid meet" version="1.0"><defs><g/><clipPath id="ffc313db55"><path d="M 53 105 L 185 105 L 185 240 L 53 240 Z M 53 105 " clip-rule="nonzero"/></clipPath><clipPath id="3284123564"><path d="M 141.09375 105.792969 C 134.214844 105.792969 127.355469 106.390625 120.585938 107.539062 C 102.429688 110.757812 99.136719 117.496094 99.136719 129.890625 L 99.136719 146.285156 L 142.039062 146.285156 L 142.039062 151.757812 L 83.050781 151.757812 C 70.574219 151.757812 59.664062 159.277344 56.257812 173.558594 C 52.324219 189.957031 52.140625 200.164062 56.257812 217.273438 C 59.296875 230.011719 66.59375 239.074219 79.042969 239.074219 L 93.796875 239.074219 L 93.796875 219.414062 C 93.796875 205.203125 106.042969 192.691406 120.585938 192.691406 L 163.441406 192.691406 C 175.363281 192.691406 184.894531 182.851562 184.894531 170.824219 L 184.894531 129.914062 C 184.894531 118.253906 175.089844 109.492188 163.441406 107.5625 C 156.054688 106.34375 148.597656 105.746094 141.09375 105.792969 Z M 117.894531 118.992188 C 122.3125 118.992188 125.949219 122.671875 125.949219 127.222656 C 125.949219 131.683594 122.359375 135.292969 117.917969 135.292969 C 113.476562 135.292969 109.863281 131.683594 109.863281 127.222656 C 109.863281 122.691406 113.453125 118.992188 117.894531 118.992188 Z M 117.894531 118.992188 " clip-rule="nonzero"/></clipPath><linearGradient x1="691.737897" gradientTransform="matrix(0.128888, 0, 0, -0.131075, -40.789049, 269.395794)" y1="1214.514695" x2="1786.518037" gradientUnits="userSpaceOnUse" y2="272.61652" id="889802231a"><stop stop-opacity="1" stop-color="rgb(35.299683%, 62.399292%, 83.099365%)" offset="0"/><stop stop-opacity="1" stop-color="rgb(35.235596%, 62.316895%, 83.009338%)" offset="0.0078125"/><stop stop-opacity="1" stop-color="rgb(35.079956%, 62.115479%, 82.78656%)" offset="0.015625"/><stop stop-opacity="1" stop-color="rgb(34.893799%, 61.877441%, 82.521057%)" offset="0.0234375"/><stop stop-opacity="1" stop-color="rgb(34.707642%, 61.637878%, 82.255554%)" offset="0.03125"/><stop stop-opacity="1" stop-color="rgb(34.521484%, 61.398315%, 81.990051%)" offset="0.0390625"/><stop stop-opacity="1" stop-color="rgb(34.335327%, 61.160278%, 81.726074%)" offset="0.046875"/><stop stop-opacity="1" stop-color="rgb(34.14917%, 60.920715%, 81.460571%)" offset="0.0546875"/><stop stop-opacity="1" stop-color="rgb(33.963013%, 60.681152%, 81.195068%)" offset="0.0625"/><stop stop-opacity="1" stop-color="rgb(33.776855%, 60.441589%, 80.929565%)" offset="0.0703125"/><stop stop-opacity="1" stop-color="rgb(33.590698%, 60.203552%, 80.665588%)" offset="0.078125"/><stop stop-opacity="1" stop-color="rgb(33.404541%, 59.963989%, 80.400085%)" offset="0.0859375"/><stop stop-opacity="1" stop-color="rgb(33.218384%, 59.724426%, 80.134583%)" offset="0.09375"/><stop stop-opacity="1" stop-color="rgb(33.032227%, 59.484863%, 79.86908%)" offset="0.101563"/><stop stop-opacity="1" stop-color="rgb(32.846069%, 59.246826%, 79.605103%)" offset="0.109375"/><stop stop-opacity="1" stop-color="rgb(32.659912%, 59.007263%, 79.3396%)" offset="0.117188"/><stop stop-opacity="1" stop-color="rgb(32.473755%, 58.7677%, 79.074097%)" offset="0.125"/><stop stop-opacity="1" stop-color="rgb(32.287598%, 58.528137%, 78.81012%)" offset="0.132813"/><stop stop-opacity="1" stop-color="rgb(32.10144%, 58.2901%, 78.544617%)" offset="0.140625"/><stop stop-opacity="1" stop-color="rgb(31.915283%, 58.050537%, 78.279114%)" offset="0.148438"/><stop stop-opacity="1" stop-color="rgb(31.729126%, 57.810974%, 78.013611%)" offset="0.15625"/><stop stop-opacity="1" stop-color="rgb(31.542969%, 57.572937%, 77.749634%)" offset="0.164063"/><stop stop-opacity="1" stop-color="rgb(31.356812%, 57.333374%, 77.484131%)" offset="0.171875"/><stop stop-opacity="1" stop-color="rgb(31.170654%, 57.093811%, 77.218628%)" offset="0.179688"/><stop stop-opacity="1" stop-color="rgb(30.984497%, 56.854248%, 76.953125%)" offset="0.1875"/><stop stop-opacity="1" stop-color="rgb(30.79834%, 56.616211%, 76.689148%)" offset="0.195312"/><stop stop-opacity="1" stop-color="rgb(30.612183%, 56.376648%, 76.423645%)" offset="0.203125"/><stop stop-opacity="1" stop-color="rgb(30.426025%, 56.137085%, 76.158142%)" offset="0.210938"/><stop stop-opacity="1" stop-color="rgb(30.239868%, 55.897522%, 75.892639%)" offset="0.21875"/><stop stop-opacity="1" stop-color="rgb(30.053711%, 55.659485%, 75.628662%)" offset="0.226562"/><stop stop-opacity="1" stop-color="rgb(29.867554%, 55.419922%, 75.363159%)" offset="0.234375"/><stop stop-opacity="1" stop-color="rgb(29.681396%, 55.180359%, 75.097656%)" offset="0.242188"/><stop stop-opacity="1" stop-color="rgb(29.495239%, 54.942322%, 74.833679%)" offset="0.25"/><stop stop-opacity="1" stop-color="rgb(29.309082%, 54.702759%, 74.568176%)" offset="0.257812"/><stop stop-opacity="1" stop-color="rgb(29.122925%, 54.463196%, 74.302673%)" offset="0.265625"/><stop stop-opacity="1" stop-color="rgb(28.936768%, 54.223633%, 74.03717%)" offset="0.273438"/><stop stop-opacity="1" stop-color="rgb(28.75061%, 53.985596%, 73.773193%)" offset="0.28125"/><stop stop-opacity="1" stop-color="rgb(28.564453%, 53.746033%, 73.50769%)" offset="0.289062"/><stop stop-opacity="1" stop-color="rgb(28.378296%, 53.50647%, 73.242188%)" offset="0.296875"/><stop stop-opacity="1" stop-color="rgb(28.192139%, 53.266907%, 72.976685%)" offset="0.304688"/><stop stop-opacity="1" stop-color="rgb(28.005981%, 53.02887%, 72.712708%)" offset="0.3125"/><stop stop-opacity="1" stop-color="rgb(27.819824%, 52.789307%, 72.447205%)" offset="0.320312"/><stop stop-opacity="1" stop-color="rgb(27.633667%, 52.549744%, 72.181702%)" offset="0.328125"/><stop stop-opacity="1" stop-color="rgb(27.44751%, 52.311707%, 71.916199%)" offset="0.335938"/><stop stop-opacity="1" stop-color="rgb(27.261353%, 52.072144%, 71.652222%)" offset="0.34375"/><stop stop-opacity="1" stop-color="rgb(27.075195%, 51.832581%, 71.386719%)" offset="0.351562"/><stop stop-opacity="1" stop-color="rgb(26.889038%, 51.593018%, 71.121216%)" offset="0.359375"/><stop stop-opacity="1" stop-color="rgb(26.702881%, 51.35498%, 70.857239%)" offset="0.367188"/><stop stop-opacity="1" stop-color="rgb(26.516724%, 51.115417%, 70.591736%)" offset="0.375"/><stop stop-opacity="1" stop-color="rgb(26.330566%, 50.875854%, 70.326233%)" offset="0.382812"/><stop stop-opacity="1" stop-color="rgb(26.144409%, 50.636292%, 70.06073%)" offset="0.390625"/><stop stop-opacity="1" stop-color="rgb(25.958252%, 50.398254%, 69.796753%)" offset="0.398438"/><stop stop-opacity="1" stop-color="rgb(25.772095%, 50.158691%, 69.53125%)" offset="0.40625"/><stop stop-opacity="1" stop-color="rgb(25.585938%, 49.919128%, 69.265747%)" offset="0.414063"/><stop stop-opacity="1" stop-color="rgb(25.401306%, 49.681091%, 69.000244%)" offset="0.421875"/><stop stop-opacity="1" stop-color="rgb(25.215149%, 49.441528%, 68.736267%)" offset="0.429688"/><stop stop-opacity="1" stop-color="rgb(25.028992%, 49.201965%, 68.470764%)" offset="0.4375"/><stop stop-opacity="1" stop-color="rgb(24.842834%, 48.962402%, 68.205261%)" offset="0.445313"/><stop stop-opacity="1" stop-color="rgb(24.656677%, 48.724365%, 67.941284%)" offset="0.453125"/><stop stop-opacity="1" stop-color="rgb(24.47052%, 48.484802%, 67.675781%)" offset="0.459359"/><stop stop-opacity="1" stop-color="rgb(24.377441%, 48.365784%, 67.54303%)" offset="0.460937"/><stop stop-opacity="1" stop-color="rgb(24.284363%, 48.245239%, 67.410278%)" offset="0.46875"/><stop stop-opacity="1" stop-color="rgb(24.098206%, 48.005676%, 67.144775%)" offset="0.476562"/><stop stop-opacity="1" stop-color="rgb(23.912048%, 47.767639%, 66.880798%)" offset="0.484375"/><stop stop-opacity="1" stop-color="rgb(23.725891%, 47.528076%, 66.615295%)" offset="0.492188"/><stop stop-opacity="1" stop-color="rgb(23.539734%, 47.288513%, 66.349792%)" offset="0.5"/><stop stop-opacity="1" stop-color="rgb(23.353577%, 47.050476%, 66.08429%)" offset="0.507812"/><stop stop-opacity="1" stop-color="rgb(23.167419%, 46.810913%, 65.820312%)" offset="0.515625"/><stop stop-opacity="1" stop-color="rgb(22.981262%, 46.57135%, 65.55481%)" offset="0.523438"/><stop stop-opacity="1" stop-color="rgb(22.795105%, 46.331787%, 65.289307%)" offset="0.53125"/><stop stop-opacity="1" stop-color="rgb(22.608948%, 46.09375%, 65.023804%)" offset="0.539063"/><stop stop-opacity="1" stop-color="rgb(22.422791%, 45.854187%, 64.759827%)" offset="0.540641"/><stop stop-opacity="1" stop-color="rgb(22.329712%, 45.735168%, 64.627075%)" offset="0.546875"/><stop stop-opacity="1" stop-color="rgb(22.236633%, 45.614624%, 64.494324%)" offset="0.554688"/><stop stop-opacity="1" stop-color="rgb(22.050476%, 45.375061%, 64.228821%)" offset="0.5625"/><stop stop-opacity="1" stop-color="rgb(21.864319%, 45.137024%, 63.964844%)" offset="0.570312"/><stop stop-opacity="1" stop-color="rgb(21.678162%, 44.897461%, 63.699341%)" offset="0.578125"/><stop stop-opacity="1" stop-color="rgb(21.492004%, 44.657898%, 63.433838%)" offset="0.585938"/><stop stop-opacity="1" stop-color="rgb(21.305847%, 44.419861%, 63.168335%)" offset="0.59375"/><stop stop-opacity="1" stop-color="rgb(21.11969%, 44.180298%, 62.904358%)" offset="0.601562"/><stop stop-opacity="1" stop-color="rgb(20.933533%, 43.940735%, 62.638855%)" offset="0.609375"/><stop stop-opacity="1" stop-color="rgb(20.747375%, 43.701172%, 62.373352%)" offset="0.617188"/><stop stop-opacity="1" stop-color="rgb(20.561218%, 43.463135%, 62.107849%)" offset="0.625"/><stop stop-opacity="1" stop-color="rgb(20.375061%, 43.223572%, 61.843872%)" offset="0.632813"/><stop stop-opacity="1" stop-color="rgb(20.188904%, 42.984009%, 61.578369%)" offset="0.640625"/><stop stop-opacity="1" stop-color="rgb(20.002747%, 42.744446%, 61.312866%)" offset="0.648438"/><stop stop-opacity="1" stop-color="rgb(19.816589%, 42.506409%, 61.047363%)" offset="0.65625"/><stop stop-opacity="1" stop-color="rgb(19.630432%, 42.266846%, 60.783386%)" offset="0.664062"/><stop stop-opacity="1" stop-color="rgb(19.444275%, 42.027283%, 60.517883%)" offset="0.671875"/><stop stop-opacity="1" stop-color="rgb(19.258118%, 41.78772%, 60.25238%)" offset="0.679688"/><stop stop-opacity="1" stop-color="rgb(19.07196%, 41.549683%, 59.988403%)" offset="0.6875"/><stop stop-opacity="1" stop-color="rgb(18.888855%, 41.314697%, 59.727478%)" offset="0.75"/><stop stop-opacity="1" stop-color="rgb(18.798828%, 41.19873%, 59.599304%)" offset="1"/></linearGradient><clipPath id="7e1449577f"><path d="M 99 151 L 232 151 L 232 287 L 99 287 Z M 99 151 " clip-rule="nonzero"/></clipPath><clipPath id="3bc47292b6"><path d="M 190.257812 151.78125 L 190.257812 170.890625 C 190.257812 185.699219 177.734375 198.164062 163.464844 198.164062 L 120.585938 198.164062 C 108.851562 198.164062 99.136719 208.238281 99.136719 220.035156 L 99.136719 260.964844 C 99.136719 272.625 109.242188 279.476562 120.585938 282.835938 C 134.167969 286.835938 147.195312 287.570312 163.441406 282.835938 C 174.238281 279.707031 184.894531 273.382812 184.894531 260.964844 L 184.894531 244.570312 L 142.039062 244.570312 L 142.039062 239.121094 L 206.320312 239.121094 C 218.796875 239.121094 223.421875 230.40625 227.773438 217.320312 C 232.261719 203.84375 232.050781 190.875 227.773438 173.605469 C 224.6875 161.164062 218.820312 151.804688 206.320312 151.804688 Z M 166.160156 255.515625 C 170.625 255.539062 174.238281 259.195312 174.214844 263.679688 C 174.214844 268.1875 170.625 271.910156 166.160156 271.910156 C 161.714844 271.910156 158.101562 268.230469 158.101562 263.679688 C 158.082031 259.21875 161.671875 255.539062 166.160156 255.515625 C 166.136719 255.515625 166.136719 255.515625 166.160156 255.515625 Z M 166.160156 255.515625 " clip-rule="nonzero"/></clipPath><linearGradient x1="2014.858671" gradientTransform="matrix(0.128888, 0, 0, -0.131075, -40.789049, 269.395794)" y1="-211.918766" x2="1182.495267" gradientUnits="userSpaceOnUse" y2="965.752406" id="3a94897555"><stop stop-opacity="1" stop-color="rgb(100%, 83.099365%, 23.098755%)" offset="0"/><stop stop-opacity="1" stop-color="rgb(100%, 83.099365%, 23.098755%)" offset="0.25"/><stop stop-opacity="1" stop-color="rgb(100%, 83.099365%, 23.098755%)" offset="0.3125"/><stop stop-opacity="1" stop-color="rgb(100%, 83.105469%, 23.118591%)" offset="0.320312"/><stop stop-opacity="1" stop-color="rgb(100%, 83.207703%, 23.402405%)" offset="0.324219"/><stop stop-opacity="1" stop-color="rgb(100%, 83.302307%, 23.666382%)" offset="0.328125"/><stop stop-opacity="1" stop-color="rgb(100%, 83.396912%, 23.930359%)" offset="0.332031"/><stop stop-opacity="1" stop-color="rgb(100%, 83.493042%, 24.194336%)" offset="0.335938"/><stop stop-opacity="1" stop-color="rgb(100%, 83.587646%, 24.456787%)" offset="0.339844"/><stop stop-opacity="1" stop-color="rgb(100%, 83.682251%, 24.720764%)" offset="0.34375"/><stop stop-opacity="1" stop-color="rgb(100%, 83.776855%, 24.984741%)" offset="0.347656"/><stop stop-opacity="1" stop-color="rgb(100%, 83.87146%, 25.248718%)" offset="0.351562"/><stop stop-opacity="1" stop-color="rgb(100%, 83.966064%, 25.512695%)" offset="0.355469"/><stop stop-opacity="1" stop-color="rgb(100%, 84.060669%, 25.776672%)" offset="0.359375"/><stop stop-opacity="1" stop-color="rgb(100%, 84.155273%, 26.039124%)" offset="0.363281"/><stop stop-opacity="1" stop-color="rgb(100%, 84.249878%, 26.303101%)" offset="0.367188"/><stop stop-opacity="1" stop-color="rgb(100%, 84.344482%, 26.567078%)" offset="0.371094"/><stop stop-opacity="1" stop-color="rgb(100%, 84.439087%, 26.831055%)" offset="0.375"/><stop stop-opacity="1" stop-color="rgb(100%, 84.533691%, 27.095032%)" offset="0.378906"/><stop stop-opacity="1" stop-color="rgb(100%, 84.628296%, 27.359009%)" offset="0.382812"/><stop stop-opacity="1" stop-color="rgb(100%, 84.7229%, 27.622986%)" offset="0.386719"/><stop stop-opacity="1" stop-color="rgb(100%, 84.817505%, 27.886963%)" offset="0.390625"/><stop stop-opacity="1" stop-color="rgb(100%, 84.912109%, 28.149414%)" offset="0.394531"/><stop stop-opacity="1" stop-color="rgb(100%, 85.00824%, 28.413391%)" offset="0.398438"/><stop stop-opacity="1" stop-color="rgb(100%, 85.102844%, 28.677368%)" offset="0.402344"/><stop stop-opacity="1" stop-color="rgb(100%, 85.197449%, 28.941345%)" offset="0.40625"/><stop stop-opacity="1" stop-color="rgb(100%, 85.292053%, 29.205322%)" offset="0.410156"/><stop stop-opacity="1" stop-color="rgb(100%, 85.386658%, 29.469299%)" offset="0.414062"/><stop stop-opacity="1" stop-color="rgb(100%, 85.481262%, 29.73175%)" offset="0.417969"/><stop stop-opacity="1" stop-color="rgb(100%, 85.575867%, 29.995728%)" offset="0.421875"/><stop stop-opacity="1" stop-color="rgb(100%, 85.670471%, 30.259705%)" offset="0.425781"/><stop stop-opacity="1" stop-color="rgb(100%, 85.765076%, 30.523682%)" offset="0.429688"/><stop stop-opacity="1" stop-color="rgb(100%, 85.85968%, 30.787659%)" offset="0.433594"/><stop stop-opacity="1" stop-color="rgb(100%, 85.954285%, 31.051636%)" offset="0.4375"/><stop stop-opacity="1" stop-color="rgb(100%, 86.048889%, 31.314087%)" offset="0.441406"/><stop stop-opacity="1" stop-color="rgb(100%, 86.143494%, 31.578064%)" offset="0.445312"/><stop stop-opacity="1" stop-color="rgb(100%, 86.238098%, 31.842041%)" offset="0.449219"/><stop stop-opacity="1" stop-color="rgb(100%, 86.334229%, 32.106018%)" offset="0.453125"/><stop stop-opacity="1" stop-color="rgb(100%, 86.428833%, 32.369995%)" offset="0.457031"/><stop stop-opacity="1" stop-color="rgb(100%, 86.523438%, 32.633972%)" offset="0.460937"/><stop stop-opacity="1" stop-color="rgb(100%, 86.618042%, 32.896423%)" offset="0.464844"/><stop stop-opacity="1" stop-color="rgb(100%, 86.712646%, 33.1604%)" offset="0.46875"/><stop stop-opacity="1" stop-color="rgb(100%, 86.807251%, 33.424377%)" offset="0.472656"/><stop stop-opacity="1" stop-color="rgb(100%, 86.901855%, 33.688354%)" offset="0.476562"/><stop stop-opacity="1" stop-color="rgb(100%, 86.99646%, 33.952332%)" offset="0.480469"/><stop stop-opacity="1" stop-color="rgb(100%, 87.091064%, 34.216309%)" offset="0.484375"/><stop stop-opacity="1" stop-color="rgb(100%, 87.185669%, 34.480286%)" offset="0.488281"/><stop stop-opacity="1" stop-color="rgb(100%, 87.280273%, 34.744263%)" offset="0.492188"/><stop stop-opacity="1" stop-color="rgb(100%, 87.374878%, 35.006714%)" offset="0.496094"/><stop stop-opacity="1" stop-color="rgb(100%, 87.469482%, 35.270691%)" offset="0.5"/><stop stop-opacity="1" stop-color="rgb(100%, 87.564087%, 35.534668%)" offset="0.503906"/><stop stop-opacity="1" stop-color="rgb(100%, 87.658691%, 35.798645%)" offset="0.507812"/><stop stop-opacity="1" stop-color="rgb(100%, 87.753296%, 36.062622%)" offset="0.511719"/><stop stop-opacity="1" stop-color="rgb(100%, 87.849426%, 36.326599%)" offset="0.515625"/><stop stop-opacity="1" stop-color="rgb(100%, 87.944031%, 36.58905%)" offset="0.519531"/><stop stop-opacity="1" stop-color="rgb(100%, 88.038635%, 36.853027%)" offset="0.523438"/><stop stop-opacity="1" stop-color="rgb(100%, 88.13324%, 37.117004%)" offset="0.527344"/><stop stop-opacity="1" stop-color="rgb(100%, 88.227844%, 37.380981%)" offset="0.53125"/><stop stop-opacity="1" stop-color="rgb(100%, 88.322449%, 37.644958%)" offset="0.535156"/><stop stop-opacity="1" stop-color="rgb(100%, 88.417053%, 37.908936%)" offset="0.539062"/><stop stop-opacity="1" stop-color="rgb(100%, 88.511658%, 38.171387%)" offset="0.542969"/><stop stop-opacity="1" stop-color="rgb(100%, 88.606262%, 38.435364%)" offset="0.546875"/><stop stop-opacity="1" stop-color="rgb(100%, 88.700867%, 38.699341%)" offset="0.550781"/><stop stop-opacity="1" stop-color="rgb(100%, 88.795471%, 38.963318%)" offset="0.554688"/><stop stop-opacity="1" stop-color="rgb(100%, 88.890076%, 39.227295%)" offset="0.558594"/><stop stop-opacity="1" stop-color="rgb(100%, 88.98468%, 39.491272%)" offset="0.5625"/><stop stop-opacity="1" stop-color="rgb(100%, 89.079285%, 39.753723%)" offset="0.566406"/><stop stop-opacity="1" stop-color="rgb(100%, 89.175415%, 40.0177%)" offset="0.570312"/><stop stop-opacity="1" stop-color="rgb(100%, 89.27002%, 40.281677%)" offset="0.574219"/><stop stop-opacity="1" stop-color="rgb(100%, 89.364624%, 40.545654%)" offset="0.578125"/><stop stop-opacity="1" stop-color="rgb(100%, 89.459229%, 40.809631%)" offset="0.582031"/><stop stop-opacity="1" stop-color="rgb(100%, 89.553833%, 41.073608%)" offset="0.585938"/><stop stop-opacity="1" stop-color="rgb(100%, 89.648438%, 41.33606%)" offset="0.589844"/><stop stop-opacity="1" stop-color="rgb(100%, 89.743042%, 41.600037%)" offset="0.59375"/><stop stop-opacity="1" stop-color="rgb(100%, 89.837646%, 41.864014%)" offset="0.597656"/><stop stop-opacity="1" stop-color="rgb(100%, 89.932251%, 42.127991%)" offset="0.601562"/><stop stop-opacity="1" stop-color="rgb(100%, 90.026855%, 42.391968%)" offset="0.605469"/><stop stop-opacity="1" stop-color="rgb(100%, 90.12146%, 42.655945%)" offset="0.609375"/><stop stop-opacity="1" stop-color="rgb(100%, 90.216064%, 42.919922%)" offset="0.613281"/><stop stop-opacity="1" stop-color="rgb(100%, 90.310669%, 43.183899%)" offset="0.617188"/><stop stop-opacity="1" stop-color="rgb(100%, 90.405273%, 43.44635%)" offset="0.621094"/><stop stop-opacity="1" stop-color="rgb(100%, 90.499878%, 43.710327%)" offset="0.625"/><stop stop-opacity="1" stop-color="rgb(100%, 90.594482%, 43.974304%)" offset="0.628906"/><stop stop-opacity="1" stop-color="rgb(100%, 90.690613%, 44.238281%)" offset="0.632812"/><stop stop-opacity="1" stop-color="rgb(100%, 90.785217%, 44.502258%)" offset="0.636719"/><stop stop-opacity="1" stop-color="rgb(100%, 90.879822%, 44.766235%)" offset="0.640625"/><stop stop-opacity="1" stop-color="rgb(100%, 90.939331%, 44.932556%)" offset="0.65625"/><stop stop-opacity="1" stop-color="rgb(100%, 90.99884%, 45.098877%)" offset="0.6875"/><stop stop-opacity="1" stop-color="rgb(100%, 90.99884%, 45.098877%)" offset="0.75"/><stop stop-opacity="1" stop-color="rgb(100%, 90.99884%, 45.098877%)" offset="1"/></linearGradient></defs><path fill="#020202" d="M 240.085938 171.261719 L 240.085938 160.496094 C 240.085938 156.128906 236.5625 152.609375 232.214844 152.609375 L 226.34375 152.609375 C 221.167969 146.816406 214.445312 143.871094 206.34375 143.871094 L 192.765625 143.871094 L 192.765625 129.890625 C 192.765625 122.300781 189.679688 115.035156 184.089844 109.472656 C 179.046875 104.433594 172.164062 100.984375 164.753906 99.742188 C 157.160156 98.5 149.449219 97.859375 141.738281 97.882812 L 140.886719 97.882812 C 133.636719 97.902344 126.410156 98.523438 119.253906 99.765625 C 108.414062 101.699219 101.578125 104.894531 97.113281 110.136719 C 92.003906 116.140625 91.3125 123.496094 91.3125 129.890625 L 91.3125 143.847656 L 83.070312 143.847656 C 74.992188 143.847656 67.511719 146.332031 61.460938 151.046875 C 55.109375 155.992188 50.667969 163.121094 48.617188 171.695312 C 44.3125 189.65625 44.3125 201.175781 48.617188 219.113281 C 52.851562 236.820312 63.945312 246.984375 79.066406 246.984375 L 91.289062 246.984375 L 91.289062 260.964844 C 91.289062 274.601562 101.164062 285.316406 118.378906 290.398438 C 126.59375 292.816406 134.28125 294.011719 141.878906 294.011719 C 149.542969 294.011719 157.320312 292.835938 165.628906 290.421875 C 172.972656 288.285156 178.957031 285.226562 183.398438 281.339844 C 189.519531 275.957031 192.765625 268.945312 192.765625 260.988281 L 192.765625 247.03125 L 206.34375 247.03125 C 214.492188 247.03125 221.121094 244.085938 226.089844 238.269531 C 230.464844 233.140625 233.089844 226.355469 235.25 219.804688 C 239.578125 206.742188 240.085938 193.863281 236.769531 177.675781 C 238.867188 176.203125 240.085938 173.8125 240.085938 171.261719 Z M 117.894531 126.878906 C 118.03125 126.949219 118.078125 127.085938 118.078125 127.199219 C 118.101562 127.316406 118.011719 127.429688 117.894531 127.476562 C 117.824219 127.476562 117.710938 127.382812 117.710938 127.199219 C 117.734375 127.085938 117.78125 126.949219 117.894531 126.878906 Z M 166.160156 264 L 166.136719 264 C 166.019531 263.933594 165.953125 263.792969 165.976562 263.679688 C 165.976562 263.472656 166.113281 263.402344 166.160156 263.402344 C 166.203125 263.402344 166.34375 263.496094 166.34375 263.679688 C 166.34375 263.816406 166.273438 263.933594 166.160156 264 Z M 166.160156 264 " fill-opacity="1" fill-rule="nonzero"/><path stroke-linecap="butt" transform="matrix(0.230157, 0, 0, 0.229956, 42.978848, 95.857355)" fill-opacity="1" fill="#020202" fill-rule="nonzero" stroke-linejoin="miter" d="M 320.898899 131.606779 L 330.606951 131.606779 L 330.606951 141.306334 L 320.898899 141.306334 Z M 320.898899 131.606779 " stroke="#000000" stroke-width="1" stroke-opacity="1" stroke-miterlimit="10"/><path stroke-linecap="butt" transform="matrix(0.230157, 0, 0, 0.229956, 42.978848, 95.857355)" fill-opacity="1" fill="#020202" fill-rule="nonzero" stroke-linejoin="miter" d="M 531.098596 726.405242 L 540.806648 726.405242 L 540.806648 736.104797 L 531.098596 736.104797 Z M 531.098596 726.405242 " stroke="#000000" stroke-width="1" stroke-opacity="1" stroke-miterlimit="10"/><g clip-path="url(#ffc313db55)"><g clip-path="url(#3284123564)"><path fill="url(#889802231a)" d="M 52.140625 239.074219 L 52.140625 105.746094 L 184.894531 105.746094 L 184.894531 239.074219 Z M 52.140625 239.074219 " fill-rule="nonzero"/></g></g><g clip-path="url(#7e1449577f)"><g clip-path="url(#3bc47292b6)"><path fill="url(#3a94897555)" d="M 99.136719 287.570312 L 99.136719 151.78125 L 232.261719 151.78125 L 232.261719 287.570312 Z M 99.136719 287.570312 " fill-rule="nonzero"/></g></g><path fill="#000000" d="M 233.113281 167.878906 L 227.75 167.878906 L 227.75 173.261719 L 222.386719 173.261719 L 222.386719 178.617188 L 217.023438 178.617188 L 217.023438 184 L 179.507812 184 L 179.507812 178.617188 L 174.144531 178.617188 L 174.144531 173.261719 L 168.78125 173.261719 L 168.78125 162.5 L 158.058594 162.5 L 158.058594 173.261719 L 152.695312 173.261719 L 152.695312 178.617188 L 147.332031 178.617188 L 147.332031 184 L 109.816406 184 L 109.816406 178.617188 L 104.453125 178.617188 L 104.453125 173.261719 L 99.089844 173.261719 L 99.089844 167.878906 L 93.726562 167.878906 L 93.726562 157.117188 L 233.113281 157.117188 Z M 233.113281 167.878906 " fill-opacity="1" fill-rule="nonzero"/><path fill="#595959" d="M 217.023438 162.5 L 222.386719 162.5 L 222.386719 167.878906 L 217.023438 167.878906 Z M 217.023438 162.5 " fill-opacity="1" fill-rule="nonzero"/><path fill="#595959" d="M 211.660156 167.878906 L 217.023438 167.878906 L 217.023438 173.261719 L 211.660156 173.261719 Z M 211.660156 167.878906 " fill-opacity="1" fill-rule="nonzero"/><path fill="#595959" d="M 206.296875 162.5 L 211.660156 162.5 L 211.660156 167.878906 L 206.296875 167.878906 Z M 206.296875 162.5 " fill-opacity="1" fill-rule="nonzero"/><path fill="#595959" d="M 200.933594 167.878906 L 206.296875 167.878906 L 206.296875 173.261719 L 200.933594 173.261719 Z M 200.933594 167.878906 " fill-opacity="1" fill-rule="nonzero"/><path fill="#595959" d="M 206.296875 173.261719 L 211.660156 173.261719 L 211.660156 178.640625 L 206.296875 178.640625 Z M 206.296875 173.261719 " fill-opacity="1" fill-rule="nonzero"/><path fill="#595959" d="M 195.574219 173.261719 L 200.933594 173.261719 L 200.933594 178.640625 L 195.574219 178.640625 Z M 195.574219 173.261719 " fill-opacity="1" fill-rule="nonzero"/><path fill="#595959" d="M 141.96875 162.5 L 147.332031 162.5 L 147.332031 167.878906 L 141.96875 167.878906 Z M 141.96875 162.5 " fill-opacity="1" fill-rule="nonzero"/><path fill="#595959" d="M 136.605469 167.878906 L 141.96875 167.878906 L 141.96875 173.261719 L 136.605469 173.261719 Z M 136.605469 167.878906 " fill-opacity="1" fill-rule="nonzero"/><path fill="#595959" d="M 131.242188 162.5 L 136.605469 162.5 L 136.605469 167.878906 L 131.242188 167.878906 Z M 131.242188 162.5 " fill-opacity="1" fill-rule="nonzero"/><path fill="#595959" d="M 131.242188 173.261719 L 136.605469 173.261719 L 136.605469 178.640625 L 131.242188 178.640625 Z M 131.242188 173.261719 " fill-opacity="1" fill-rule="nonzero"/><path fill="#595959" d="M 125.882812 167.878906 L 131.242188 167.878906 L 131.242188 173.261719 L 125.882812 173.261719 Z M 125.882812 167.878906 " fill-opacity="1" fill-rule="nonzero"/><path fill="#595959" d="M 120.519531 173.261719 L 125.882812 173.261719 L 125.882812 178.640625 L 120.519531 178.640625 Z M 120.519531 173.261719 " fill-opacity="1" fill-rule="nonzero"/><g fill="#000000" fill-opacity="1"><g transform="translate(284.443033, 283.499978)"><g><path d="M 92.78125 -141.1875 C 85.945312 -141.1875 79.894531 -139.859375 74.625 -137.203125 C 69.363281 -134.554688 64.945312 -130.734375 61.375 -125.734375 C 57.800781 -120.742188 55.09375 -114.710938 53.25 -107.640625 C 51.40625 -100.578125 50.484375 -92.628906 50.484375 -83.796875 C 50.484375 -71.878906 51.960938 -61.710938 54.921875 -53.296875 C 57.878906 -44.890625 62.46875 -38.476562 68.6875 -34.0625 C 74.914062 -29.644531 82.945312 -27.4375 92.78125 -27.4375 C 99.625 -27.4375 106.484375 -28.203125 113.359375 -29.734375 C 120.234375 -31.273438 127.703125 -33.46875 135.765625 -36.3125 L 135.765625 -6.34375 C 128.316406 -3.269531 120.976562 -1.0625 113.75 0.28125 C 106.53125 1.632812 98.425781 2.3125 89.4375 2.3125 C 72.070312 2.3125 57.800781 -1.28125 46.625 -8.46875 C 35.445312 -15.65625 27.164062 -25.722656 21.78125 -38.671875 C 16.40625 -51.617188 13.71875 -66.734375 13.71875 -84.015625 C 13.71875 -96.773438 15.445312 -108.457031 18.90625 -119.0625 C 22.363281 -129.664062 27.429688 -138.847656 34.109375 -146.609375 C 40.796875 -154.367188 49.054688 -160.359375 58.890625 -164.578125 C 68.734375 -168.804688 80.03125 -170.921875 92.78125 -170.921875 C 101.15625 -170.921875 109.550781 -169.863281 117.96875 -167.75 C 126.382812 -165.644531 134.429688 -162.75 142.109375 -159.0625 L 130.59375 -130.015625 C 124.289062 -133.003906 117.945312 -135.613281 111.5625 -137.84375 C 105.1875 -140.070312 98.925781 -141.1875 92.78125 -141.1875 Z M 92.78125 -141.1875 "/></g></g><g transform="translate(434.854154, 283.499978)"><g><path d="M 135.546875 -64.65625 C 135.546875 -53.894531 134.101562 -44.363281 131.21875 -36.0625 C 128.332031 -27.769531 124.144531 -20.757812 118.65625 -15.03125 C 113.164062 -9.3125 106.554688 -4.988281 98.828125 -2.0625 C 91.109375 0.851562 82.410156 2.3125 72.734375 2.3125 C 63.660156 2.3125 55.335938 0.851562 47.765625 -2.0625 C 40.203125 -4.988281 33.632812 -9.3125 28.0625 -15.03125 C 22.488281 -20.757812 18.1875 -27.769531 15.15625 -36.0625 C 12.125 -44.363281 10.609375 -53.894531 10.609375 -64.65625 C 10.609375 -78.945312 13.140625 -91.046875 18.203125 -100.953125 C 23.273438 -110.867188 30.5 -118.398438 39.875 -123.546875 C 49.25 -128.703125 60.429688 -131.28125 73.421875 -131.28125 C 85.484375 -131.28125 96.179688 -128.703125 105.515625 -123.546875 C 114.847656 -118.398438 122.1875 -110.867188 127.53125 -100.953125 C 132.875 -91.046875 135.546875 -78.945312 135.546875 -64.65625 Z M 46.453125 -64.65625 C 46.453125 -56.207031 47.375 -49.097656 49.21875 -43.328125 C 51.0625 -37.566406 53.941406 -33.226562 57.859375 -30.3125 C 61.773438 -27.394531 66.882812 -25.9375 73.1875 -25.9375 C 79.414062 -25.9375 84.46875 -27.394531 88.34375 -30.3125 C 92.226562 -33.226562 95.070312 -37.566406 96.875 -43.328125 C 98.675781 -49.097656 99.578125 -56.207031 99.578125 -64.65625 C 99.578125 -73.1875 98.675781 -80.273438 96.875 -85.921875 C 95.070312 -91.566406 92.207031 -95.8125 88.28125 -98.65625 C 84.363281 -101.5 79.253906 -102.921875 72.953125 -102.921875 C 63.660156 -102.921875 56.921875 -99.734375 52.734375 -93.359375 C 48.546875 -86.984375 46.453125 -77.414062 46.453125 -64.65625 Z M 46.453125 -64.65625 "/></g></g><g transform="translate(581.000747, 283.499978)"><g><path d="M 135.546875 -64.65625 C 135.546875 -53.894531 134.101562 -44.363281 131.21875 -36.0625 C 128.332031 -27.769531 124.144531 -20.757812 118.65625 -15.03125 C 113.164062 -9.3125 106.554688 -4.988281 98.828125 -2.0625 C 91.109375 0.851562 82.410156 2.3125 72.734375 2.3125 C 63.660156 2.3125 55.335938 0.851562 47.765625 -2.0625 C 40.203125 -4.988281 33.632812 -9.3125 28.0625 -15.03125 C 22.488281 -20.757812 18.1875 -27.769531 15.15625 -36.0625 C 12.125 -44.363281 10.609375 -53.894531 10.609375 -64.65625 C 10.609375 -78.945312 13.140625 -91.046875 18.203125 -100.953125 C 23.273438 -110.867188 30.5 -118.398438 39.875 -123.546875 C 49.25 -128.703125 60.429688 -131.28125 73.421875 -131.28125 C 85.484375 -131.28125 96.179688 -128.703125 105.515625 -123.546875 C 114.847656 -118.398438 122.1875 -110.867188 127.53125 -100.953125 C 132.875 -91.046875 135.546875 -78.945312 135.546875 -64.65625 Z M 46.453125 -64.65625 C 46.453125 -56.207031 47.375 -49.097656 49.21875 -43.328125 C 51.0625 -37.566406 53.941406 -33.226562 57.859375 -30.3125 C 61.773438 -27.394531 66.882812 -25.9375 73.1875 -25.9375 C 79.414062 -25.9375 84.46875 -27.394531 88.34375 -30.3125 C 92.226562 -33.226562 95.070312 -37.566406 96.875 -43.328125 C 98.675781 -49.097656 99.578125 -56.207031 99.578125 -64.65625 C 99.578125 -73.1875 98.675781 -80.273438 96.875 -85.921875 C 95.070312 -91.566406 92.207031 -95.8125 88.28125 -98.65625 C 84.363281 -101.5 79.253906 -102.921875 72.953125 -102.921875 C 63.660156 -102.921875 56.921875 -99.734375 52.734375 -93.359375 C 48.546875 -86.984375 46.453125 -77.414062 46.453125 -64.65625 Z M 46.453125 -64.65625 "/></g></g><g transform="translate(727.14734, 283.499978)"><g><path d="M 53.59375 0 L 18.4375 0 L 18.4375 -179.34375 L 53.59375 -179.34375 Z M 53.59375 0 "/></g></g><g transform="translate(799.183317, 283.499978)"><g><path d="M 75.03125 -168.5 C 96.78125 -168.5 112.644531 -163.832031 122.625 -154.5 C 132.613281 -145.164062 137.609375 -132.316406 137.609375 -115.953125 C 137.609375 -108.578125 136.492188 -101.523438 134.265625 -94.796875 C 132.046875 -88.078125 128.414062 -82.101562 123.375 -76.875 C 118.34375 -71.65625 111.640625 -67.523438 103.265625 -64.484375 C 94.890625 -61.453125 84.554688 -59.9375 72.265625 -59.9375 L 56.9375 -59.9375 L 56.9375 0 L 21.203125 0 L 21.203125 -168.5 Z M 73.1875 -139.234375 L 56.9375 -139.234375 L 56.9375 -89.203125 L 68.6875 -89.203125 C 75.375 -89.203125 81.175781 -90.085938 86.09375 -91.859375 C 91.007812 -93.628906 94.8125 -96.394531 97.5 -100.15625 C 100.195312 -103.925781 101.546875 -108.769531 101.546875 -114.6875 C 101.546875 -122.976562 99.238281 -129.140625 94.625 -133.171875 C 90.007812 -137.210938 82.863281 -139.234375 73.1875 -139.234375 Z M 73.1875 -139.234375 "/></g></g><g transform="translate(947.404546, 283.499978)"><g><path d="M 0 -128.859375 L 38.5 -128.859375 L 62.8125 -56.359375 C 63.582031 -54.054688 64.234375 -51.710938 64.765625 -49.328125 C 65.304688 -46.941406 65.769531 -44.484375 66.15625 -41.953125 C 66.539062 -39.421875 66.847656 -36.769531 67.078125 -34 L 67.765625 -34 C 68.234375 -38.144531 68.867188 -42.023438 69.671875 -45.640625 C 70.484375 -49.253906 71.503906 -52.828125 72.734375 -56.359375 L 96.578125 -128.859375 L 134.28125 -128.859375 L 79.765625 16.484375 C 76.453125 25.398438 72.144531 32.832031 66.84375 38.78125 C 61.539062 44.738281 55.453125 49.210938 48.578125 52.203125 C 41.703125 55.203125 34.15625 56.703125 25.9375 56.703125 C 21.9375 56.703125 18.476562 56.488281 15.5625 56.0625 C 12.644531 55.644531 10.144531 55.207031 8.0625 54.75 L 8.0625 26.859375 C 9.675781 27.242188 11.710938 27.585938 14.171875 27.890625 C 16.628906 28.203125 19.207031 28.359375 21.90625 28.359375 C 26.820312 28.359375 31.046875 27.316406 34.578125 25.234375 C 38.109375 23.160156 41.066406 20.375 43.453125 16.875 C 45.835938 13.382812 47.71875 9.566406 49.09375 5.421875 L 51.171875 -0.921875 Z M 0 -128.859375 "/></g></g></g><g fill="#ffde59" fill-opacity="1"><g transform="translate(276.378451, 278.412958)"><g><path d="M 92.78125 -141.1875 C 85.945312 -141.1875 79.894531 -139.859375 74.625 -137.203125 C 69.363281 -134.554688 64.945312 -130.734375 61.375 -125.734375 C 57.800781 -120.742188 55.09375 -114.710938 53.25 -107.640625 C 51.40625 -100.578125 50.484375 -92.628906 50.484375 -83.796875 C 50.484375 -71.878906 51.960938 -61.710938 54.921875 -53.296875 C 57.878906 -44.890625 62.46875 -38.476562 68.6875 -34.0625 C 74.914062 -29.644531 82.945312 -27.4375 92.78125 -27.4375 C 99.625 -27.4375 106.484375 -28.203125 113.359375 -29.734375 C 120.234375 -31.273438 127.703125 -33.46875 135.765625 -36.3125 L 135.765625 -6.34375 C 128.316406 -3.269531 120.976562 -1.0625 113.75 0.28125 C 106.53125 1.632812 98.425781 2.3125 89.4375 2.3125 C 72.070312 2.3125 57.800781 -1.28125 46.625 -8.46875 C 35.445312 -15.65625 27.164062 -25.722656 21.78125 -38.671875 C 16.40625 -51.617188 13.71875 -66.734375 13.71875 -84.015625 C 13.71875 -96.773438 15.445312 -108.457031 18.90625 -119.0625 C 22.363281 -129.664062 27.429688 -138.847656 34.109375 -146.609375 C 40.796875 -154.367188 49.054688 -160.359375 58.890625 -164.578125 C 68.734375 -168.804688 80.03125 -170.921875 92.78125 -170.921875 C 101.15625 -170.921875 109.550781 -169.863281 117.96875 -167.75 C 126.382812 -165.644531 134.429688 -162.75 142.109375 -159.0625 L 130.59375 -130.015625 C 124.289062 -133.003906 117.945312 -135.613281 111.5625 -137.84375 C 105.1875 -140.070312 98.925781 -141.1875 92.78125 -141.1875 Z M 92.78125 -141.1875 "/></g></g><g transform="translate(426.786935, 278.412958)"><g><path d="M 135.546875 -64.65625 C 135.546875 -53.894531 134.101562 -44.363281 131.21875 -36.0625 C 128.332031 -27.769531 124.144531 -20.757812 118.65625 -15.03125 C 113.164062 -9.3125 106.554688 -4.988281 98.828125 -2.0625 C 91.109375 0.851562 82.410156 2.3125 72.734375 2.3125 C 63.660156 2.3125 55.335938 0.851562 47.765625 -2.0625 C 40.203125 -4.988281 33.632812 -9.3125 28.0625 -15.03125 C 22.488281 -20.757812 18.1875 -27.769531 15.15625 -36.0625 C 12.125 -44.363281 10.609375 -53.894531 10.609375 -64.65625 C 10.609375 -78.945312 13.140625 -91.046875 18.203125 -100.953125 C 23.273438 -110.867188 30.5 -118.398438 39.875 -123.546875 C 49.25 -128.703125 60.429688 -131.28125 73.421875 -131.28125 C 85.484375 -131.28125 96.179688 -128.703125 105.515625 -123.546875 C 114.847656 -118.398438 122.1875 -110.867188 127.53125 -100.953125 C 132.875 -91.046875 135.546875 -78.945312 135.546875 -64.65625 Z M 46.453125 -64.65625 C 46.453125 -56.207031 47.375 -49.097656 49.21875 -43.328125 C 51.0625 -37.566406 53.941406 -33.226562 57.859375 -30.3125 C 61.773438 -27.394531 66.882812 -25.9375 73.1875 -25.9375 C 79.414062 -25.9375 84.46875 -27.394531 88.34375 -30.3125 C 92.226562 -33.226562 95.070312 -37.566406 96.875 -43.328125 C 98.675781 -49.097656 99.578125 -56.207031 99.578125 -64.65625 C 99.578125 -73.1875 98.675781 -80.273438 96.875 -85.921875 C 95.070312 -91.566406 92.207031 -95.8125 88.28125 -98.65625 C 84.363281 -101.5 79.253906 -102.921875 72.953125 -102.921875 C 63.660156 -102.921875 56.921875 -99.734375 52.734375 -93.359375 C 48.546875 -86.984375 46.453125 -77.414062 46.453125 -64.65625 Z M 46.453125 -64.65625 "/></g></g><g transform="translate(572.930965, 278.412958)"><g><path d="M 135.546875 -64.65625 C 135.546875 -53.894531 134.101562 -44.363281 131.21875 -36.0625 C 128.332031 -27.769531 124.144531 -20.757812 118.65625 -15.03125 C 113.164062 -9.3125 106.554688 -4.988281 98.828125 -2.0625 C 91.109375 0.851562 82.410156 2.3125 72.734375 2.3125 C 63.660156 2.3125 55.335938 0.851562 47.765625 -2.0625 C 40.203125 -4.988281 33.632812 -9.3125 28.0625 -15.03125 C 22.488281 -20.757812 18.1875 -27.769531 15.15625 -36.0625 C 12.125 -44.363281 10.609375 -53.894531 10.609375 -64.65625 C 10.609375 -78.945312 13.140625 -91.046875 18.203125 -100.953125 C 23.273438 -110.867188 30.5 -118.398438 39.875 -123.546875 C 49.25 -128.703125 60.429688 -131.28125 73.421875 -131.28125 C 85.484375 -131.28125 96.179688 -128.703125 105.515625 -123.546875 C 114.847656 -118.398438 122.1875 -110.867188 127.53125 -100.953125 C 132.875 -91.046875 135.546875 -78.945312 135.546875 -64.65625 Z M 46.453125 -64.65625 C 46.453125 -56.207031 47.375 -49.097656 49.21875 -43.328125 C 51.0625 -37.566406 53.941406 -33.226562 57.859375 -30.3125 C 61.773438 -27.394531 66.882812 -25.9375 73.1875 -25.9375 C 79.414062 -25.9375 84.46875 -27.394531 88.34375 -30.3125 C 92.226562 -33.226562 95.070312 -37.566406 96.875 -43.328125 C 98.675781 -49.097656 99.578125 -56.207031 99.578125 -64.65625 C 99.578125 -73.1875 98.675781 -80.273438 96.875 -85.921875 C 95.070312 -91.566406 92.207031 -95.8125 88.28125 -98.65625 C 84.363281 -101.5 79.253906 -102.921875 72.953125 -102.921875 C 63.660156 -102.921875 56.921875 -99.734375 52.734375 -93.359375 C 48.546875 -86.984375 46.453125 -77.414062 46.453125 -64.65625 Z M 46.453125 -64.65625 "/></g></g><g transform="translate(719.074996, 278.412958)"><g><path d="M 53.59375 0 L 18.4375 0 L 18.4375 -179.34375 L 53.59375 -179.34375 Z M 53.59375 0 "/></g></g></g><g fill="#004aad" fill-opacity="1"><g transform="translate(791.098733, 278.412958)"><g><path d="M 75.03125 -168.5 C 96.78125 -168.5 112.644531 -163.832031 122.625 -154.5 C 132.613281 -145.164062 137.609375 -132.316406 137.609375 -115.953125 C 137.609375 -108.578125 136.492188 -101.523438 134.265625 -94.796875 C 132.046875 -88.078125 128.414062 -82.101562 123.375 -76.875 C 118.34375 -71.65625 111.640625 -67.523438 103.265625 -64.484375 C 94.890625 -61.453125 84.554688 -59.9375 72.265625 -59.9375 L 56.9375 -59.9375 L 56.9375 0 L 21.203125 0 L 21.203125 -168.5 Z M 73.1875 -139.234375 L 56.9375 -139.234375 L 56.9375 -89.203125 L 68.6875 -89.203125 C 75.375 -89.203125 81.175781 -90.085938 86.09375 -91.859375 C 91.007812 -93.628906 94.8125 -96.394531 97.5 -100.15625 C 100.195312 -103.925781 101.546875 -108.769531 101.546875 -114.6875 C 101.546875 -122.976562 99.238281 -129.140625 94.625 -133.171875 C 90.007812 -137.210938 82.863281 -139.234375 73.1875 -139.234375 Z M 73.1875 -139.234375 "/></g></g><g transform="translate(939.317362, 278.412958)"><g><path d="M 0 -128.859375 L 38.5 -128.859375 L 62.8125 -56.359375 C 63.582031 -54.054688 64.234375 -51.710938 64.765625 -49.328125 C 65.304688 -46.941406 65.769531 -44.484375 66.15625 -41.953125 C 66.539062 -39.421875 66.847656 -36.769531 67.078125 -34 L 67.765625 -34 C 68.234375 -38.144531 68.867188 -42.023438 69.671875 -45.640625 C 70.484375 -49.253906 71.503906 -52.828125 72.734375 -56.359375 L 96.578125 -128.859375 L 134.28125 -128.859375 L 79.765625 16.484375 C 76.453125 25.398438 72.144531 32.832031 66.84375 38.78125 C 61.539062 44.738281 55.453125 49.210938 48.578125 52.203125 C 41.703125 55.203125 34.15625 56.703125 25.9375 56.703125 C 21.9375 56.703125 18.476562 56.488281 15.5625 56.0625 C 12.644531 55.644531 10.144531 55.207031 8.0625 54.75 L 8.0625 26.859375 C 9.675781 27.242188 11.710938 27.585938 14.171875 27.890625 C 16.628906 28.203125 19.207031 28.359375 21.90625 28.359375 C 26.820312 28.359375 31.046875 27.316406 34.578125 25.234375 C 38.109375 23.160156 41.066406 20.375 43.453125 16.875 C 45.835938 13.382812 47.71875 9.566406 49.09375 5.421875 L 51.171875 -0.921875 Z M 0 -128.859375 "/></g></g></g></svg>