<svg id="Layer_1" data-name="Layer 1" xmlns="http://www.w3.org/2000/svg" xmlns:xlink="http://www.w3.org/1999/xlink" viewBox="0 0 1375.22 323.76"><defs><style>.cls-1{fill:none;}.cls-2,.cls-3{fill:#020202;}.cls-11,.cls-12,.cls-3{stroke:#000;}.cls-3{stroke-miterlimit:3.07;stroke-width:0.31px;}.cls-4{clip-path:url(#clip-path);}.cls-5{clip-path:url(#clip-path-2);}.cls-6{fill:url(#linear-gradient);}.cls-7{clip-path:url(#clip-path-3);}.cls-8{clip-path:url(#clip-path-4);}.cls-9{fill:url(#linear-gradient-2);}.cls-10{fill:#595959;}.cls-11{fill:#ffdd3b;}.cls-11,.cls-12{stroke-linecap:round;stroke-linejoin:round;stroke-width:9px;}.cls-12{fill:#387baa;}</style><clipPath id="clip-path"><rect class="cls-1" x="10.11" y="12.26" width="176" height="180"/></clipPath><clipPath id="clip-path-2"><path class="cls-1" d="M127.57,13.32a161.67,161.67,0,0,0-27.35,2.33C76,19.94,71.62,28.92,71.62,45.45V67.31h57.2V74.6H50.17c-16.63,0-31.18,10-35.72,29.07C9.21,125.54,9,139.15,14.45,162,18.5,179,28.23,191,44.83,191H64.5V164.81c0-18.95,16.33-35.63,35.72-35.63h57.14c15.9,0,28.61-13.12,28.61-29.15V45.48c0-15.55-13.08-27.23-28.61-29.8A174,174,0,0,0,127.57,13.32ZM96.63,30.92a10.89,10.89,0,0,1,10.74,11,10.73,10.73,0,0,1-21.46.65v-.65a10.85,10.85,0,0,1,10.7-11Z"/></clipPath><linearGradient id="linear-gradient" x1="-6536.41" y1="3253.11" x2="-5441.63" y2="2311.21" gradientTransform="matrix(0.17, 0, 0, -0.17, 1120.58, 579.41)" gradientUnits="userSpaceOnUse"><stop offset="0" stop-color="#5a9fd4"/><stop offset="0.01" stop-color="#5a9fd4"/><stop offset="0.02" stop-color="#599ed3"/><stop offset="0.02" stop-color="#599ed2"/><stop offset="0.03" stop-color="#599dd2"/><stop offset="0.04" stop-color="#589dd1"/><stop offset="0.05" stop-color="#589cd0"/><stop offset="0.05" stop-color="#579bd0"/><stop offset="0.06" stop-color="#579bcf"/><stop offset="0.07" stop-color="#569ace"/><stop offset="0.08" stop-color="#569ace"/><stop offset="0.09" stop-color="#5599cd"/><stop offset="0.09" stop-color="#5598cc"/><stop offset="0.1" stop-color="#5498cc"/><stop offset="0.11" stop-color="#5497cb"/><stop offset="0.12" stop-color="#5396ca"/><stop offset="0.13" stop-color="#5396ca"/><stop offset="0.13" stop-color="#5295c9"/><stop offset="0.14" stop-color="#5295c8"/><stop offset="0.15" stop-color="#5194c8"/><stop offset="0.16" stop-color="#5193c7"/><stop offset="0.16" stop-color="#5093c6"/><stop offset="0.17" stop-color="#5092c6"/><stop offset="0.18" stop-color="#4f92c5"/><stop offset="0.19" stop-color="#4f91c4"/><stop offset="0.2" stop-color="#4f90c4"/><stop offset="0.2" stop-color="#4e90c3"/><stop offset="0.21" stop-color="#4e8fc2"/><stop offset="0.22" stop-color="#4d8fc2"/><stop offset="0.23" stop-color="#4d8ec1"/><stop offset="0.23" stop-color="#4c8dc0"/><stop offset="0.24" stop-color="#4c8dbf"/><stop offset="0.25" stop-color="#4b8cbf"/><stop offset="0.26" stop-color="#4b8bbe"/><stop offset="0.27" stop-color="#4a8bbd"/><stop offset="0.27" stop-color="#4a8abd"/><stop offset="0.28" stop-color="#498abc"/><stop offset="0.29" stop-color="#4989bb"/><stop offset="0.3" stop-color="#4888bb"/><stop offset="0.3" stop-color="#4888ba"/><stop offset="0.31" stop-color="#4787b9"/><stop offset="0.32" stop-color="#4787b9"/><stop offset="0.33" stop-color="#4686b8"/><stop offset="0.34" stop-color="#4685b7"/><stop offset="0.35" stop-color="#4584b6"/><stop offset="0.36" stop-color="#4584b5"/><stop offset="0.37" stop-color="#4483b5"/><stop offset="0.38" stop-color="#4482b4"/><stop offset="0.38" stop-color="#4382b3"/><stop offset="0.39" stop-color="#4381b3"/><stop offset="0.4" stop-color="#4281b2"/><stop offset="0.41" stop-color="#4280b1"/><stop offset="0.41" stop-color="#417fb1"/><stop offset="0.42" stop-color="#417fb0"/><stop offset="0.43" stop-color="#407eaf"/><stop offset="0.44" stop-color="#407daf"/><stop offset="0.45" stop-color="#3f7dae"/><stop offset="0.45" stop-color="#3f7cad"/><stop offset="0.46" stop-color="#3e7cad"/><stop offset="0.46" stop-color="#3e7bac"/><stop offset="0.47" stop-color="#3e7bac"/><stop offset="0.48" stop-color="#3d7aab"/><stop offset="0.49" stop-color="#3d79aa"/><stop offset="0.5" stop-color="#3c79a9"/><stop offset="0.51" stop-color="#3c78a9"/><stop offset="0.52" stop-color="#3b77a8"/><stop offset="0.52" stop-color="#3b77a7"/><stop offset="0.53" stop-color="#3a76a6"/><stop offset="0.54" stop-color="#3a76a6"/><stop offset="0.54" stop-color="#3975a5"/><stop offset="0.55" stop-color="#3975a5"/><stop offset="0.55" stop-color="#3974a4"/><stop offset="0.56" stop-color="#3874a4"/><stop offset="0.57" stop-color="#3873a3"/><stop offset="0.58" stop-color="#3772a2"/><stop offset="0.59" stop-color="#3772a2"/><stop offset="0.59" stop-color="#3671a1"/><stop offset="0.6" stop-color="#3671a0"/><stop offset="0.61" stop-color="#3570a0"/><stop offset="0.62" stop-color="#356f9f"/><stop offset="0.63" stop-color="#346f9e"/><stop offset="0.63" stop-color="#346e9e"/><stop offset="0.64" stop-color="#336e9d"/><stop offset="0.65" stop-color="#336d9c"/><stop offset="0.66" stop-color="#336c9c"/><stop offset="0.66" stop-color="#326c9b"/><stop offset="0.67" stop-color="#326b9a"/><stop offset="0.68" stop-color="#316b9a"/><stop offset="0.69" stop-color="#316a99"/><stop offset="0.75" stop-color="#306998"/><stop offset="1" stop-color="#306998"/></linearGradient><clipPath id="clip-path-3"><rect class="cls-1" x="71.44" y="73.59" width="177.33" height="181.33"/></clipPath><clipPath id="clip-path-4"><path class="cls-1" d="M193.12,74.64v25.47c0,19.75-16.71,36.37-35.74,36.37H100.22c-15.65,0-28.6,13.43-28.6,29.16v54.62c0,15.55,13.48,24.69,28.6,29.16,18.11,5.34,35.48,6.32,57.13,0,14.4-4.17,28.61-12.6,28.61-29.16V198.35H128.83v-7.26h85.7c16.64,0,22.81-11.62,28.61-29.07,6-18,5.7-35.26,0-58.29C239,87.15,231.2,74.67,214.53,74.67ZM161,213a10.93,10.93,0,1,1-10.74,11.11c0-.08,0-.15,0-.23A10.83,10.83,0,0,1,161,213Z"/></clipPath><linearGradient id="linear-gradient-2" x1="-5214.55" y1="1822.84" x2="-6046.92" y2="3000.52" gradientTransform="matrix(0.17, 0, 0, -0.17, 1120.58, 579.41)" gradientUnits="userSpaceOnUse"><stop offset="0" stop-color="#ffd43b"/><stop offset="0.25" stop-color="#ffd43b"/><stop offset="0.31" stop-color="#ffd43b"/><stop offset="0.32" stop-color="#ffd43b"/><stop offset="0.32" stop-color="#ffd43c"/><stop offset="0.33" stop-color="#ffd43c"/><stop offset="0.33" stop-color="#ffd53d"/><stop offset="0.34" stop-color="#ffd53e"/><stop offset="0.34" stop-color="#ffd53f"/><stop offset="0.35" stop-color="#ffd640"/><stop offset="0.36" stop-color="#ffd641"/><stop offset="0.36" stop-color="#ffd642"/><stop offset="0.36" stop-color="#ffd742"/><stop offset="0.37" stop-color="#ffd743"/><stop offset="0.37" stop-color="#ffd744"/><stop offset="0.38" stop-color="#ffd744"/><stop offset="0.38" stop-color="#ffd845"/><stop offset="0.38" stop-color="#ffd846"/><stop offset="0.39" stop-color="#ffd846"/><stop offset="0.39" stop-color="#ffd847"/><stop offset="0.39" stop-color="#ffd948"/><stop offset="0.4" stop-color="#ffd948"/><stop offset="0.4" stop-color="#ffd949"/><stop offset="0.41" stop-color="#ffd94a"/><stop offset="0.41" stop-color="#ffda4b"/><stop offset="0.42" stop-color="#ffda4c"/><stop offset="0.43" stop-color="#ffda4d"/><stop offset="0.43" stop-color="#ffdb4e"/><stop offset="0.43" stop-color="#ffdb4f"/><stop offset="0.44" stop-color="#ffdb4f"/><stop offset="0.44" stop-color="#ffdb50"/><stop offset="0.45" stop-color="#ffdc51"/><stop offset="0.45" stop-color="#ffdc52"/><stop offset="0.46" stop-color="#ffdc53"/><stop offset="0.46" stop-color="#ffdd53"/><stop offset="0.46" stop-color="#ffdd54"/><stop offset="0.47" stop-color="#fd5"/><stop offset="0.48" stop-color="#ffde56"/><stop offset="0.48" stop-color="#ffde57"/><stop offset="0.49" stop-color="#ffde58"/><stop offset="0.49" stop-color="#ffdf59"/><stop offset="0.5" stop-color="#ffdf59"/><stop offset="0.5" stop-color="#ffdf5a"/><stop offset="0.5" stop-color="#ffdf5b"/><stop offset="0.51" stop-color="#ffe05b"/><stop offset="0.51" stop-color="#ffe05c"/><stop offset="0.52" stop-color="#ffe05d"/><stop offset="0.52" stop-color="#ffe05e"/><stop offset="0.53" stop-color="#ffe15f"/><stop offset="0.54" stop-color="#ffe160"/><stop offset="0.54" stop-color="#ffe161"/><stop offset="0.54" stop-color="#ffe261"/><stop offset="0.55" stop-color="#ffe262"/><stop offset="0.55" stop-color="#ffe263"/><stop offset="0.56" stop-color="#ffe364"/><stop offset="0.56" stop-color="#ffe365"/><stop offset="0.57" stop-color="#ffe365"/><stop offset="0.57" stop-color="#ffe366"/><stop offset="0.57" stop-color="#ffe467"/><stop offset="0.58" stop-color="#ffe467"/><stop offset="0.58" stop-color="#ffe468"/><stop offset="0.59" stop-color="#ffe469"/><stop offset="0.59" stop-color="#ffe569"/><stop offset="0.59" stop-color="#ffe56a"/><stop offset="0.6" stop-color="#ffe56b"/><stop offset="0.61" stop-color="#ffe66c"/><stop offset="0.61" stop-color="#ffe66d"/><stop offset="0.62" stop-color="#ffe66e"/><stop offset="0.62" stop-color="#ffe76f"/><stop offset="0.63" stop-color="#ffe76f"/><stop offset="0.63" stop-color="#ffe770"/><stop offset="0.63" stop-color="#ffe771"/><stop offset="0.64" stop-color="#ffe871"/><stop offset="0.64" stop-color="#ffe872"/><stop offset="0.66" stop-color="#ffe873"/><stop offset="0.69" stop-color="#ffe873"/><stop offset="0.75" stop-color="#ffe873"/><stop offset="1" stop-color="#ffe873"/></linearGradient></defs><path class="cls-2" d="M259.54,100.61V86.26a10.48,10.48,0,0,0-10.46-10.51h-7.85C234.33,68,225.37,64.1,214.57,64.1H196.44V45.45a38.35,38.35,0,0,0-11.55-27.19,47.87,47.87,0,0,0-25.78-13,186.52,186.52,0,0,0-30.67-2.49h-1.13A171.3,171.3,0,0,0,98.44,5.26C84,7.84,74.87,12.1,68.91,19.09c-6.81,8-7.74,17.81-7.74,26.34V64.06h-11a46.32,46.32,0,0,0-28.73,9.6C13,80.25,7.05,89.75,4.31,101.19c-5.75,24-5.75,39.3,0,63.22C10,188,24.75,201.57,44.91,201.57H61.2v18.69c0,18.19,13.18,32.47,36.12,39.25a110.22,110.22,0,0,0,31.29,4.75,112.57,112.57,0,0,0,31.67-4.79c9.79-2.85,17.77-6.93,23.69-12.11a35.34,35.34,0,0,0,12.47-27.1v-18.6h18.1c10.86,0,19.71-3.93,26.33-11.69,5.83-6.84,9.33-15.88,12.22-24.62,5.76-17.41,6.44-34.59,2-56.17A10.37,10.37,0,0,0,259.54,100.61ZM96.63,41.43a.49.49,0,0,1,.25.43.36.36,0,0,1-.25.37c-.09,0-.24-.13-.24-.37A.63.63,0,0,1,96.63,41.43ZM161,224.26h0a.44.44,0,0,1-.22-.43c0-.27.18-.37.25-.37a.37.37,0,0,1,.24.37A.47.47,0,0,1,161,224.26Z"/><path class="cls-3" d="M95.22,40.42h3v3h-3Z"/><path class="cls-3" d="M159.73,222.79h3v3h-3Z"/><g class="cls-4"><g class="cls-5"><path class="cls-6" d="M9,191V13.26H186V191Z"/></g></g><g class="cls-7"><g class="cls-8"><path class="cls-9" d="M71.62,255.69v-181h177.5v181Z"/></g></g><path d="M250.26,96.1h-7.15v7.16H236v7.14H228.8v7.17h-50V110.4h-7.15v-7.14h-7.21V88.93h-14.3v14.33H143v7.14h-7.15v7.17h-50V110.4H78.69v-7.14H71.54V96.08h-7.1V81.75H250.26Z"/><path class="cls-10" d="M228.79,88.93H236V96.1h-7.16Z"/><path class="cls-10" d="M221.65,96.1h7.14v7.16h-7.14Z"/><path class="cls-10" d="M214.5,88.93h7.15V96.1H214.5Z"/><path class="cls-10" d="M207.35,96.1h7.15v7.16h-7.15Z"/><path class="cls-10" d="M214.5,103.26h7.15v7.17H214.5Z"/><path class="cls-10" d="M200.2,103.26h7.15v7.17H200.2Z"/><path class="cls-10" d="M128.73,88.93h7.15V96.1h-7.15Z"/><path class="cls-10" d="M121.58,96.1h7.15v7.16h-7.15Z"/><path class="cls-10" d="M114.44,88.93h7.15V96.1h-7.15Z"/><path class="cls-10" d="M114.44,103.26h7.15v7.17h-7.15Z"/><path class="cls-10" d="M107.28,96.1h7.16v7.16h-7.15Z"/><path class="cls-10" d="M100.13,103.26h7.15v7.17h-7.15Z"/><path class="cls-11" d="M431.44,55.37a53.14,53.14,0,0,0-24.22,5.32A47.94,47.94,0,0,0,389.57,76a72.46,72.46,0,0,0-10.85,24.12A126.2,126.2,0,0,0,375,131.9q0,23.83,5.91,40.66t18.34,25.7q12.45,8.84,32.12,8.83A125.91,125.91,0,0,0,458.85,204a262.1,262.1,0,0,0,29.87-8.77v40a148,148,0,0,1-29.34,8.83A177.17,177.17,0,0,1,427,246.8q-34.72,0-57.08-14.38t-33.13-40.36Q326,166.17,326,131.6q0-25.51,6.91-46.73a106.05,106.05,0,0,1,20.28-36.72,89.3,89.3,0,0,1,33-24q19.68-8.46,45.19-8.46A137.34,137.34,0,0,1,465,19.92,169.16,169.16,0,0,1,497.15,31.5L481.84,70.26a262,262,0,0,0-25.4-10.43A75.9,75.9,0,0,0,431.44,55.37Z"/><path class="cls-11" d="M689,157.42q0,21.53-5.77,38.12a75.75,75.75,0,0,1-16.75,28A70.79,70.79,0,0,1,640,240.83q-15.43,5.83-34.79,5.84A91.74,91.74,0,0,1,572,240.83a72.81,72.81,0,0,1-26.28-17.29,77.92,77.92,0,0,1-17.21-28q-6-16.6-6-38.12,0-28.59,10.12-48.4A69.48,69.48,0,0,1,561.44,78.9q18.75-10.32,44.72-10.32,24.14,0,42.79,10.32A72.92,72.92,0,0,1,678.3,109Q689,128.84,689,157.42Zm-118.78,0q0,16.89,3.69,28.43t11.55,17.41q7.83,5.84,20.43,5.83T626,203.26q7.79-5.83,11.38-17.36t3.6-28.43q0-17.07-3.6-28.36t-11.46-17q-7.82-5.69-20.44-5.68-18.57,0-27,12.75T570.2,157.42Z"/><path class="cls-11" d="M883.85,157.42q0,21.53-5.77,38.12a76,76,0,0,1-16.75,28,70.87,70.87,0,0,1-26.44,17.29q-15.43,5.83-34.79,5.84a91.75,91.75,0,0,1-33.29-5.84,73,73,0,0,1-26.27-17.29,77.64,77.64,0,0,1-17.21-28q-6.06-16.6-6.06-38.12,0-28.59,10.12-48.4a69.53,69.53,0,0,1,28.9-30.12Q775,68.58,801,68.58q24.12,0,42.79,10.32A73,73,0,0,1,873.16,109Q883.86,128.84,883.85,157.42Zm-118.79,0q0,16.89,3.69,28.43t11.52,17.41q7.83,5.84,20.44,5.83,12.45,0,20.19-5.83t11.38-17.36q3.62-11.53,3.6-28.43,0-17.07-3.6-28.36t-11.45-17q-7.83-5.69-20.44-5.68-18.6,0-27,12.75t-8.33,38.24Z"/><path class="cls-11" d="M969.44,243.62H922.57V4.5h46.87Z"/><path class="cls-12" d="M1094.07,19q43.5,0,63.45,18.66t20,51.4a89.47,89.47,0,0,1-4.44,28.21,62.29,62.29,0,0,1-14.52,23.89q-10.07,10.44-26.82,16.53t-41.33,6.06h-20.47v79.91h-47.65V19Zm-2.46,39h-21.67v66.71h15.67q13.37,0,23.21-3.54a31,31,0,0,0,15.2-11.07q5.4-7.53,5.39-19.37,0-16.57-9.22-24.65T1091.61,58Z"/><path class="cls-12" d="M1191.64,71.81H1243l32.46,96.67a92.21,92.21,0,0,1,2.6,9.37c.72,3.19,1.34,6.46,1.85,9.84s.93,6.91,1.23,10.6h.92a148.06,148.06,0,0,1,2.55-15.52,128.58,128.58,0,0,1,4.07-14.29l31.78-96.67h50.28L1298,265.6q-6.63,17.83-17.23,29.73a69.7,69.7,0,0,1-24.36,17.93,74.57,74.57,0,0,1-30.19,6,97.15,97.15,0,0,1-13.84-.86c-3.89-.55-7.21-1.14-10-1.75V279.44a77.6,77.6,0,0,0,8.16,1.37,80.61,80.61,0,0,0,10.31.63,32.77,32.77,0,0,0,16.9-4.17,36.65,36.65,0,0,0,11.83-11.15,60.79,60.79,0,0,0,7.52-15.27l2.77-8.45Z"/></svg>