<?xml version="1.0" encoding="utf-8"?>
<svg version="1.1" id="Layer_1" xmlns="http://www.w3.org/2000/svg" xmlns:xlink="http://www.w3.org/1999/xlink" x="0px" y="0px"
	 viewBox="0 0 866.8 870.5" style="enable-background:new 0 0 866.8 870.5;" xml:space="preserve">
<style type="text/css">
	.st0{fill:#020202;}
	.st1{fill:#020202;stroke:#000000;stroke-miterlimit:10;}
	.st2{fill:url(#path1948_00000051360284057552240980000000962568755380375939_);}
	.st3{fill:url(#path1950_00000160175246456569684940000000014444466310153108_);}
	.st4{fill:#595959;}
</style>
<g id="Layer_2_00000155847081921905754060000017341140863269163964_">
	<path class="st0" d="M856.4,327.9v-46.8c0-19-15.3-34.3-34.2-34.3h-25.5c-22.5-25.2-51.7-38-86.9-38h-59v-60.8
		c0-33-13.4-64.6-37.7-88.8c-21.9-21.9-51.8-36.9-84-42.3c-33-5.4-66.5-8.2-100-8.1h-3.7c-31.5,0.1-62.9,2.8-94,8.2
		c-47.1,8.4-76.8,22.3-96.2,45.1c-22.2,26.1-25.2,58.1-25.2,85.9v60.7h-35.8c-35.1,0-67.6,10.8-93.9,31.3
		c-27.6,21.5-46.9,52.5-55.8,89.8c-18.7,78.1-18.7,128.2,0,206.2c18.4,77,66.6,121.2,132.3,121.2h53.1V718
		c0,59.3,42.9,105.9,117.7,128c35.7,10.5,69.1,15.7,102.1,15.7c33.3,0,67.1-5.1,103.2-15.6c31.9-9.3,57.9-22.6,77.2-39.5
		c26.6-23.4,40.7-53.9,40.7-88.5v-60.7h59c35.4,0,64.2-12.8,85.8-38.1c19-22.3,30.4-51.8,39.8-80.3c18.8-56.8,21-112.8,6.6-183.2
		C851.1,349.4,856.4,339,856.4,327.9z M325.5,134.9L325.5,134.9c0.6,0.3,0.8,0.9,0.8,1.4c0.1,0.5-0.3,1-0.8,1.2
		c-0.3,0-0.8-0.4-0.8-1.2C324.8,135.8,325,135.2,325.5,134.9z M535.2,731.2h-0.1c-0.5-0.3-0.8-0.9-0.7-1.4c0-0.9,0.6-1.2,0.8-1.2
		s0.8,0.4,0.8,1.2C536,730.4,535.7,730.9,535.2,731.2z"/>
	<rect x="320.9" y="131.6" class="st1" width="9.7" height="9.7"/>
	<rect x="531.1" y="726.4" class="st1" width="9.7" height="9.7"/>
</g>
<g id="Layer_1_00000036217890951400211430000011747588037764235143_">
	
		<linearGradient id="path1948_00000089537730828196346940000010372491466136303491_" gradientUnits="userSpaceOnUse" x1="694.4621" y1="1212.1709" x2="1452.6632" y2="559.8499" gradientTransform="matrix(0.56 0 0 -0.57 -363.96 754.66)">
		<stop  offset="0" style="stop-color:#5A9FD4"/>
		<stop  offset="1" style="stop-color:#306998"/>
	</linearGradient>
	<path id="path1948" style="fill:url(#path1948_00000089537730828196346940000010372491466136303491_);" d="M426.3,43.2
		c-29.9,0-59.7,2.6-89.1,7.6c-78.9,14-93.2,43.3-93.2,97.2v71.3h186.4v23.8H174.1c-54.2,0-101.6,32.7-116.4,94.8
		c-17.1,71.3-17.9,115.7,0,190.1c13.2,55.4,44.9,94.8,99,94.8h64.1v-85.5c0-61.8,53.2-116.2,116.4-116.2h186.2
		c51.8,0,93.2-42.8,93.2-95.1V148.1c0-50.7-42.6-88.8-93.2-97.2C491.3,45.6,458.9,43,426.3,43.2L426.3,43.2z M325.5,100.6
		c19.2,0,35,16,35,35.8c0,19.4-15.6,35.1-34.9,35.1c-19.3,0-35-15.7-35-35.1c0,0,0,0,0,0C290.6,116.7,306.2,100.6,325.5,100.6z"/>
	
		<linearGradient id="path1950_00000096774809375570697630000018272091548304897688_" gradientUnits="userSpaceOnUse" x1="1748.7321" y1="164.6113" x2="1477.5133" y2="548.3464" gradientTransform="matrix(0.56 0 0 -0.57 -363.96 754.66)">
		<stop  offset="0" style="stop-color:#FFD43B"/>
		<stop  offset="1" style="stop-color:#FFE873"/>
	</linearGradient>
	<path id="path1950" style="fill:url(#path1950_00000096774809375570697630000018272091548304897688_);" d="M639.9,243.2v83.1
		c0,64.4-54.4,118.6-116.4,118.6H337.2c-51,0-93.2,43.8-93.2,95.1V718c0,50.7,43.9,80.5,93.2,95.1c59,17.4,115.6,20.6,186.2,0
		c46.9-13.6,93.2-41.1,93.2-95.1v-71.3H430.4V623h279.3c54.2,0,74.3-37.9,93.2-94.8c19.5-58.6,18.6-115,0-190.1
		c-13.4-54.1-38.9-94.8-93.2-94.8L639.9,243.2L639.9,243.2z M535.2,694.3c19.4,0.1,35.1,16,35,35.5c0,0,0,0,0,0
		c0,19.6-15.6,35.8-35,35.8c-19.3,0-35-16-35-35.8C500.1,710.4,515.7,694.4,535.2,694.3C535.1,694.3,535.1,694.3,535.2,694.3z"/>
	<g id="LWPOLYLINE">
		<polygon points="826.1,313.2 802.8,313.2 802.8,336.6 779.5,336.6 779.5,359.9 756.2,359.9 756.2,383.3 732.9,383.3 709.6,383.3 
			686.3,383.3 663,383.3 593.2,383.3 593.2,359.9 569.9,359.9 569.9,336.6 546.6,336.6 546.6,289.8 500,289.8 500,336.6 
			476.7,336.6 476.7,359.9 453.4,359.9 453.4,383.3 430.1,383.3 406.8,383.3 383.5,383.3 360.2,383.3 336.9,383.3 290.4,383.3 
			290.4,359.9 267.1,359.9 267.1,336.6 243.8,336.6 243.8,313.2 220.5,313.2 220.5,266.4 826.1,266.4 		"/>
	</g>
	<g id="LWPOLYLINE-2">
		<rect x="756.2" y="289.8" class="st4" width="23.3" height="23.4"/>
	</g>
	<g id="LWPOLYLINE-3">
		<rect x="732.9" y="313.2" class="st4" width="23.3" height="23.4"/>
	</g>
	<g id="LWPOLYLINE-4">
		<rect x="709.6" y="289.8" class="st4" width="23.3" height="23.4"/>
	</g>
	<g id="LWPOLYLINE-5">
		<rect x="686.3" y="313.2" class="st4" width="23.3" height="23.4"/>
	</g>
	<g id="LWPOLYLINE-6">
		<rect x="709.6" y="336.6" class="st4" width="23.3" height="23.4"/>
	</g>
	<g id="LWPOLYLINE-7">
		<rect x="663" y="336.6" class="st4" width="23.3" height="23.4"/>
	</g>
	<g id="LWPOLYLINE-8">
		<rect x="430.1" y="289.8" class="st4" width="23.3" height="23.4"/>
	</g>
	<g id="LWPOLYLINE-9">
		<rect x="406.8" y="313.2" class="st4" width="23.3" height="23.4"/>
	</g>
	<g id="LWPOLYLINE-10">
		<rect x="383.5" y="289.8" class="st4" width="23.3" height="23.4"/>
	</g>
	<g id="LWPOLYLINE-11">
		<rect x="383.5" y="336.6" class="st4" width="23.3" height="23.4"/>
	</g>
	<g id="LWPOLYLINE-12">
		<rect x="360.2" y="313.2" class="st4" width="23.3" height="23.4"/>
	</g>
	<g id="LWPOLYLINE-13">
		<rect x="336.9" y="336.6" class="st4" width="23.3" height="23.4"/>
	</g>
</g>
</svg>
